<svg version="1.2" xmlns="http://www.w3.org/2000/svg" viewBox="0 0 4000 2500" width="4000" height="2500">
	<title>1</title>
	<defs>
		<linearGradient id="g1" x1="2019.5" y1="1920.1" x2="2019.5" y2="2412.2" gradientUnits="userSpaceOnUse">
			<stop offset="0" stop-color="#a3c5e7"/>
			<stop offset="1" stop-color="#e8f4fb"/>
		</linearGradient>
		<clipPath clipPathUnits="userSpaceOnUse" id="cp1">
			<path d="m655.27 1010.27c0 78.56-63.68 142.24-142.23 142.24-78.56 0-142.24-63.68-142.24-142.24 0-78.55 63.68-142.23 142.24-142.23 78.55 0 142.23 63.68 142.23 142.23zm-66.88 0c0-41.61-33.74-75.34-75.35-75.34-41.62 0-75.35 33.73-75.35 75.34 0 41.62 33.73 75.35 75.35 75.35 41.61 0 75.35-33.73 75.35-75.35z"/>
		</clipPath>
	</defs>
	<style>
		.s0 { fill: #e7f3fe } 
		.s1 { fill: #a2dff2 } 
		.s2 { fill: #96cfe0 } 
		.s3 { fill: #f37168 } 
		.s4 { fill: #2e5b9a } 
		.s5 { fill: #ebd3c5 } 
		.s6 { fill: #d7b6a5 } 
		.s7 { fill: #75a1de } 
		.s8 { fill: #a86b48 } 
		.s9 { fill: #3e6bab } 
		.s10 { fill: #f0ceb4 } 
		.s11 { fill: #53493f } 
		.s12 { fill: #a8ceff } 
		.s13 { fill: #6695d6 } 
		.s14 { fill: #303c60 } 
		.s15 { fill: #3b3a36 } 
		.s16 { fill: #d54a41 } 
		.s17 { opacity: .5;fill: url(#g1) } 
		.s18 { fill: #9ec8ff } 
		.s19 { fill: #ffffff } 
		.s20 { fill: #c0a394 } 
		.s21 { opacity: .5;fill: #9ec8ff } 
		.s22 { fill: #f39892 } 
		.s23 { fill: #9cd499 } 
	</style>
	<g id="Слой 1">
		<g id="&lt;Group&gt;">
			<g id="&lt;Group&gt;">
				<path id="&lt;Path&gt;" class="s0" d="m3223.3 906.7c144.9-150.6-565.4-674.8-1152-722.6-540.1-44-1253.5 169-529.2 483.9 690.2 300.1 1605.5 317.5 1681.2 238.7z"/>
			</g>
			<g id="&lt;Group&gt;">
				<path id="&lt;Path&gt;" class="s0" d="m388.2 801.1c338.3-428 1048.7 24 1656.6 133.8 607.8 109.8 1596.5-64.6 1594.1 417-2.7 513.5-221.9 802.4-1424.6 940.3-1202.6 138-1753.2-287.2-1910.5-739.9-122.4-352.4-6-636.9 84.4-751.2z"/>
			</g>
			<g id="&lt;Group&gt;">
				<path id="&lt;Path&gt;" class="s1" d="m2707.7 1347.7c-49.6 100.8-111.9 376.2-128.8 391.3-17 15.1-115.1 73.6-132.1 101.9-17 28.3-9.4 18.8-1.9 20.7 7.6 1.9 433.9 3.8 433.9 3.8 0 0-49-292.4-54.7-294.3-5.7-1.9-116.4-223.4-116.4-223.4z"/>
				<path id="&lt;Path&gt;" class="s2" d="m2637.2 1864c78.2 0.6 160.9 1 206.4 1.2l-62.3-372.4c-33.2-64.4-73.6-145.1-73.6-145.1-6.2 12.7-12.7 28.2-19.2 45.6-6.5 279.7 33.8 358.1 3.5 408-23.6 38.8-45.1 56.2-54.8 62.7z"/>
			</g>
			<g id="&lt;Group&gt;">
				<path id="&lt;Path&gt;" class="s1" d="m2969.2 1226.1c70.8 65.3 228.4 127.3 228.4 127.3 0 0 24 221.3 7.6 346.5-16.3 125.3-7.2 150.7-7.2 150.7l-340.4 2.9c0 0-28.2-63.4-108.1-251.6-50.8-119.8-41.8-254.2-41.8-254.2l197.9-89z"/>
				<path id="&lt;Path&gt;" class="s2" d="m2873 1850.6h325c0 0-9.1-25.4 7.2-150.7 13.5-103.1-0.4-271.3-5.7-327.5l-29.5-12.7c-74.3 21.4-117 132-129.6 240.2-8.4 72.4-128.3 143.6-206.7 182.8 25.7 49.2 39.3 67.9 39.3 67.9z"/>
				<path id="&lt;Path&gt;" class="s2" d="m2914.5 1304.7c0 0 3 93.4 19 92.4 15.9-1 108.5-118.5 108.5-118.5l-15.7-7.5z"/>
				<path id="&lt;Path&gt;" class="s2" d="m2890.5 1299.3c0 0-20.1 86-30.1 84-10-2-23.5-89.4-23.5-89.4z"/>
				<path id="&lt;Path&gt;" class="s3" d="m2886.8 1288.6l27.7 3 10.6 33c0 0-24.3 28.5-24.8 40-0.5 11.5 5.3 54.5 5.7 93.5 0.3 39-14.1 194.3-7.5 289.4 6.5 95.1 6.5 95.1 6.5 95.1l-55.7 2.1c0 0-3-104.6 0-216.6 3-112 34.9-263.5 34.9-263.5l-12.6-38.5z"/>
				<path id="&lt;Path&gt;" class="s4" d="m2793.3 999c-39.2 87.2 7.8 168 6.4 164.6-1.4-3.4 59.3-147.3 59.3-147.3z"/>
				<path id="&lt;Path&gt;" class="s5" d="m2941.7 1063.5l49.7 181.6c1.4 5.1 0.2 10.6-3.1 14.7-11.7 14.4-28.3 43.9-61.7 53.4-6.5 1.8-14.6 2.3-21 2.3-6.9 0-12.8-4.8-14-11.5l-33.3-172.2z"/>
				<path id="&lt;Path&gt;" class="s6" d="m2932.3 1078.7l-18.2 7.4-55.8 45.7 21.4 109.2 8.5 43.5c50.9-31.7 69.5-83.4 44.1-205.8z"/>
				<path id="&lt;Path&gt;" class="s5" d="m2929.2 1145.8c0 60.8-36.6 108.6-81.8 106.9-45.2-1.7-73-35.9-82-113.1-7-60.5 10.5-131 55.7-129.3 45.2 1.8 108 74.8 108.1 135.5z"/>
				<path id="&lt;Path&gt;" class="s1" d="m3197.6 1353.4c65.8 14.9 78 148.4 99.4 289.3 2.4 16.2 15.1 153.4 15.1 153.4 0 0 1.2 25.2-23.9 37.7-21.5 10.8-30.2 18.9-154.7 20.2-119.6 1.2-273.8-3.8-273.8-3.8 0 0-1.3-44.5 10.9-66.3 18.5-32.7 207.5-79.6 225.1-82.1 2.6-35.2-17.3-162.6 10.1-249 18.9-59.5 39.2-90.6 64.6-98.7 8.4-2.7 17.5-2.9 27.2-0.7z"/>
				<path id="&lt;Path&gt;" class="s2" d="m2927.3 1852.9c59 0.9 139.9 1.7 206.2 1.1 124.5-1.3 133.2-9.4 154.7-20.2 25.1-12.5 26.4-33.9 26.4-33.9 0 0-12.7-146-15.1-162.3-13.8-94.3-28.8-202.2-63.6-254.3 32.7 95.8 38 176.7 38.6 211.2 0.3 17.5-1.3 41.5-6.5 58.2-5.6 18.6-20.1 30.2-42.7 23.9-45.3-12.6-101.9 13.9-101.9 13.9 0 0 42.8-15.1 83-1.3 40.3 13.8 123.3 105.6 32.7 139.6-27.7 10.4-193.7 18.9-311.8 24.1z"/>
				<path id="&lt;Path&gt;" class="s2" d="m2880.7 1788.1c0 0 16.8-28.5 51.1-28.5 34.4 0 31.9 56.2 26.9 74.6-5.1 18.5-25.2 19.3-25.2 19.3l-69.2-1.7z"/>
				<path id="&lt;Path&gt;" class="s7" d="m2200 1854.4h577.7c0-16-13-29-29-29h-548.7z"/>
				<path id="&lt;Path&gt;" class="s5" d="m2868.2 1783.6c-69.7-32-89.3-23.9-105.2-30-39.1-15.1-50-6-81.9 62.8-6.4 13.8 8.7 15.9 23.8 17.2 15 1.3 35.9-26.4 42-29.2 6.1-2.9 22.1-3.2 22.1-3.2 0 0-5-0.4-13.8 14-8.8 14.4-18.5 19.5-6.8 20.5 11.7 1 15-18.1 36.4-12.1 21.4 6 17 26.4 71.5 24.6 51.6-1.6 90.2 3.5 92.1-29.1 1.8-31 6.6-46.2-22.3-54.1-22.2-6.1-57.9 18.6-57.9 18.6z"/>
				<path id="&lt;Path&gt;" class="s8" d="m2869.1 1783.7c48.5-1.3 29.3 57.3 23.9 61.9-5.5 4.6 26.6 4 26.6 4 0 0 16.9-22.7 6.7-51.4-10.1-28.6-35.1-32-35.1-32l-22.3 9.9z"/>
				<path id="&lt;Path&gt;" class="s4" d="m2917.4 1771.9c0.4 7.4-11.5 14.1-26.5 14.9-15 0.8-27.5-4.7-27.9-12.1-0.4-7.5 11.5-14.1 26.5-14.9 15-0.8 27.5 4.6 27.9 12.1z"/>
				<path id="&lt;Path&gt;" class="s9" d="m2913.1 1768.7c0.3 6.7-10.3 12.6-23.7 13.3-13.4 0.7-24.5-4.1-24.9-10.8-0.3-6.6 10.3-12.6 23.7-13.3 13.4-0.7 24.5 4.2 24.9 10.8z"/>
				<path id="&lt;Path&gt;" class="s10" d="m2904.4 1766.8c0.2 4.8-7.4 9.1-17.1 9.6-9.6 0.5-17.6-3-17.9-7.8-0.2-4.8 7.4-9.1 17-9.6 9.7-0.5 17.7 3 18 7.8z"/>
				<path id="&lt;Path&gt;" class="s6" d="m2490.9 1788.1c35.8-19.9 79.6-13.3 95.5 6.6 15.9 19.9 18.6 33.2-17.2 33.2-35.8 0-107.4 2.6-119.4 1.3-11.9-1.3 41.1-41.1 41.1-41.1z"/>
				<path id="&lt;Path&gt;" class="s6" d="m2537.5 1781.2c38.4-9.3 64.7 13.1 96.8 34.4 27.8 18.6 33.4 36.7 2.6 21.3-45.1-22.6-71.6-25.2-71.6-25.2z"/>
				<path id="&lt;Path&gt;" class="s5" d="m2494.5 1798.6c-19.4 0-36.3-6.2-50-5.1-13.8 1.2-57.2 45.7-50.3 49.2q0.7 0.3 1.6 0.6c10.3 3.8 21.9-0.4 27.7-9.7 6.2-9.9 16.2-21.3 27.8-17.2 19.4 6.8 39.8 6.2 39.8 6.2z"/>
				<path id="&lt;Path&gt;" class="s5" d="m2497.6 1835.8c-19.9-7.9 11.9-74.2 22.5-74.2 10.6 0 50.4 31.8 50.4 31.8 0 0-9.4 5.3-41.1-5.3-8-2.7-14.6 42.4-23.9 47.7-9.3 5.3-7.9 0-7.9 0z"/>
				<path id="&lt;Path&gt;" class="s1" d="m2881.2 1249l9.3 49.6-27.2 59-29.6-62.5z"/>
				<path id="&lt;Path&gt;" class="s11" d="m2771.7 1174c11.5 72.1 38.2 79.7 57.1 86.3 18.9 6.6 89.7-23.1 97.2-42.9 19.3-50.5-11.8-88.6-5.5-89.1 6.3-0.5 15.2 16.2 35.6 36.1 1.9 1.9 15 14.1 14.7 9.3-4.4-65.7 25.4-91.8 5.4-155.4-14.7-46.8-44.5-37.4-44.5-37.4 0 0-27-36.5-87.3-20.6-40.4 10.6-73.9 33.3-114.1 51.9-40.2 18.7 69.6 97.3 117.9 52.3 48.3-45.1 35.5 36.9 45.2 41.3 9.8 4.3 4.3 0 15.6 38.6 11.2 38.7-34.1 73.7-47.8 79.7-43.8 19.2-52.9 13.1-66.1-2.3-11.5-13.4-23.4-47.8-23.4-47.8z"/>
				<path id="&lt;Path&gt;" class="s6" d="m2957.4 1116.7c-1.9 19-12.6 33.1-23.9 31.4-11.3-1.7-14.3-16.4-16.9-37.6-2.4-19.2 12.6-33.2 23.9-31.4 11.2 1.7 18.8 18.5 16.9 37.6z"/>
				<path id="&lt;Path&gt;" class="s1" d="m2987.3 1230.1l49.4 46c0 0-95 89.5-103.2 88.5-8.3-1-22.2-76-22.2-76z"/>
				<path id="&lt;Path&gt;" class="s1" d="m2912.7 1287.5c-9.1 4.3-6.2 17.3-10 21.8-3.9 4.5-6.2 5.7-9.3-0.6-3.1-6.3-2.6-20.5-5-21.2-2.5-0.7-20.8 56.6-20.8 56.6 0 0 13.5-36.7 16.6-32.7 3 4 0.6 7.8 11.7 8.4 11.2 0.7 25.4-4 25.4-4z"/>
			</g>
			<g id="&lt;Group&gt;">
				<path id="&lt;Path&gt;" class="s12" d="m2199.3 1854.4h308.6l-131.1-288.3c-3.8-8.4-12.2-13.8-21.4-13.8h-279.1c-6.7 0-11.2 6.9-8.4 13z"/>
				<path id="&lt;Path&gt;" class="s7" d="m2046.3 1552.3h284.8c9.2 0 17.6 5.4 21.4 13.8l131 288.3h-314.2l-131.4-289.1c-2.8-6.1 1.7-13 8.4-13z"/>
				<path id="&lt;Path&gt;" class="s13" d="m2194.7 1720.1c10.8 22.4 28.4 36.3 39.2 31.1 10.8-5.2 10.8-27.6 0-50-10.8-22.3-28.3-36.3-39.1-31-10.9 5.2-10.9 27.6-0.1 49.9z"/>
			</g>
			<g id="&lt;Group&gt;">
				<g id="&lt;Group&gt;">
					<path id="&lt;Path&gt;" class="s14" d="m1092.3 1339.5c-4.8 0-9.5-0.3-14.1-0.5-3.9-0.2-7.8-0.4-11.6-0.5-1.4 0-2.5-1.1-2.4-2.4 0-1.4 1.1-2.4 2.4-2.4 3.9 0 8 0.2 11.8 0.4 29 1.5 59 3 88.1-53.1 12.7-24.4 26.5-71.8 23.7-125.1-2.3-43.7-17.1-105.8-74.5-153.7-1-0.9-1.2-2.4-0.3-3.5 0.9-1 2.4-1.1 3.4-0.3 58.7 49.1 73.9 112.6 76.2 157.3 2.9 54.3-11.2 102.6-24.1 127.5-25.8 49.6-53.2 56.3-78.6 56.3z"/>
				</g>
				<g id="&lt;Group&gt;">
					<path id="&lt;Path&gt;" class="s14" d="m1083.2 1328q-1.7 0-3.4-0.1c-1.3-0.1-2.4-1.2-2.3-2.6 0.1-1.3 1.2-2.4 2.6-2.3q1.5 0.1 3.1 0.1c30.2 0 58.2-21.4 77-59.2 31-62.2 34-164.3-21.5-230.9-0.8-1-0.7-2.6 0.3-3.4 1.1-0.9 2.6-0.7 3.5 0.3 56.8 68.2 53.8 172.5 22.1 236.1-19.7 39.6-49.2 62-81.4 62z"/>
				</g>
				<path id="&lt;Path&gt;" class="s15" d="m974.8 1017.2c87.5-67.9 169.6-31.9 199.1 60 27.5 85.8-7.8 270.3-138.3 238.2-135-33.3-146.2-74.6-145.2-134.7 0.8-48 21.3-114.5 84.4-163.5z"/>
				<path id="&lt;Path&gt;" class="s1" d="m929.3 1289.5l-125 46.6c0 0 35 254 38 351 3 97-46 181.2-46 181.2h327c0 0 45-264.2 36-357.2-9-93-71-189.3-74-191.7-3-2.3-78-19.3-78-19.3z"/>
				<path id="&lt;Path&gt;" class="s16" d="m1149.3 1602.1c0 0 12.6 118 17.8 124 5.2 6 197.2 100 197.2 100l-279 19z"/>
				<path id="&lt;Path&gt;" class="s16" d="m1085.3 1319.4c31 0.7 39.4 51.4 46.7 89.1 7.3 37.6-46.7-89.1-46.7-89.1z"/>
				<path id="&lt;Path&gt;" class="s3" d="m1032.3 1520.1c-17-61-108.4-230.9-108.4-230.9l-119.6 46.9c0 0 27.4 199.1 35.8 312.1l45.4 220.1h146.8c0 0 17-287.2 0-348.2z"/>
				<path id="&lt;Path&gt;" class="s16" d="m863.4 1761.1l134.9-31-11 115z"/>
				<path id="&lt;Path&gt;" class="s16" d="m930.8 1793.1c-22-29.8-43.5-62.5-22.5-131 20.9-68.4 23-93 15.6-155-7.3-62-40.6-161-105.6-164 0 0-2.2 21.7-5.6 56.3 10.5 81.8 27.5 221.4 29.6 287.7 3 97-46 181.2-46 181.2l266 5.8c0 0-109.5-51.2-131.5-81z"/>
				<path id="&lt;Path&gt;" class="s3" d="m1159.3 1511.1c-9-93-71-189.3-74-191.7-1.9-1.4-31.2-8.4-53.4-13.6 6.5 15.4 75.2 179.1 72.4 246.5-3 70.8 0.1 316 0.1 316h18.9c0 0 45-264.2 36-357.2z"/>
			</g>
			<path id="&lt;Compound Path&gt;" fill-rule="evenodd" class="s17" d="m1821.1 2078.4c-3.3-1.6-6.2-2.9-9-4.4-2.6-1.5-4.9-3.6-6.7-6-1.8-2.6-3.5-5.2-5.4-8.2-4.2 9.7-11.2 15.7-21.9 18.3 2.2 0.9 3.5 1.4 4.9 2 12 5.1 17.9 17.8 14.2 30.3-2.8 9.5-12.6 19.3-27.5 17.2-12.8-1.7-20.7-12.8-21.1-23.2-0.5-11 5.8-20.5 15.4-24.4 1.3-0.5 2.5-1 4.2-1.6-3.2-1.4-6.1-2.6-8.9-4-2.7-1.4-5.1-3.3-6.9-5.7-2-2.5-3.6-5.2-5.5-7.9-1.4 0.6-1.5 2.1-2.2 3.1-0.9 1.2-1.7 2.5-2.6 3.7q-1.3 1.6-2.8 3-1.6 1.3-3.2 2.5c-1.2 0.8-2.3 1.5-3.6 2-1.3 0.7-2.8 1.2-4.2 1.7-1.3 0.4-2.6 0.8-4.4 1.4 1.8 0.6 3.1 0.9 4.3 1.4 12 4.1 17.3 15 17 24.3-0.4 11.4-8.9 21.4-20.4 23.5-11.2 2-22.6-4.1-27-14.6-5.7-13.6 1.2-28.7 15.2-33.3 1.2-0.4 2.3-0.7 4.2-1.2-5.7-1.8-10.7-3.4-14.8-7q-6-5.4-8.6-13c-1.8 0.3-1.6 1.6-2.1 2.5-3.9 8.3-10.1 13.7-19.1 16-8.6 2.1-16.2-0.2-23-5.3-3.7-2.8-6.4-6.4-8.3-10.7-0.4-0.8-0.3-2.1-1.8-2.5-5.5 12.9-15 19.9-29.3 18.4-11.7-1.1-19.8-9.1-23.4-22.4-1.3 0.6-1.3 1.9-1.6 3-2.2 7.3-6.7 12.8-13.4 16.3-13.2 7-29.9 1.3-36.1-12.3-0.9-2.1-1.6-4.2-2.5-6.4-1.5 0.5-1.3 1.9-1.7 2.9-1.2 3.8-3.1 7.3-5.9 10.1-7.6 7.8-16.9 10.2-27 6.8-10.6-3.5-16.8-11.2-17.8-22.4-0.9-10.8 3.7-19.1 12.9-24.8 1-0.6 2.1-1.2 3.1-1.8 0.1-0.1 0.2-0.3 0.4-0.6-1-1.3-2.8-1.5-4.1-2.4-1.4-0.9-2.9-1.6-4.3-2.6-1.2-0.9-2.3-1.9-3.4-3-1.1-1.2-2.2-2.5-3.2-3.8-1-1.3-1.8-2.8-2.9-4.4-0.5 0.4-1 0.7-1.3 1.1-4.1 7-10 11.6-17.8 13.9-0.3 0.1-0.5 0.3-1 0.7 0.9 1.3 2.4 1.5 3.7 2q8 3.5 12.2 11.1c5.2 9.1 4 20.9-2.8 28.9-6.8 7.9-18 11.1-27.5 7.8-10.5-3.7-17.3-12.9-17.5-23.6-0.2-10.8 5.5-19.8 15.4-24.2 1.2-0.5 2.4-1.1 4.1-1.9-4.8-2.1-9.3-3.7-13-6.9-3.5-3.2-5.9-7.2-8-11.2-1.3-0.2-1.3 0.8-1.7 1.3-0.4 0.5-0.6 1.1-0.9 1.6-4.3 7.6-10.7 12.3-19.2 13.9-10.7 1.9-19.7-1.6-26.7-9.9-1.5-1.7-2.4-3.8-3.6-5.7-0.5-0.9-1-1.9-1.4-2.7-1.3 0-1.2 1-1.6 1.5-0.3 0.5-0.5 1.1-0.8 1.7-2.4 4.8-6 8.6-10.8 11.3-15.2 8.5-34.7 0.6-39.2-16.4-0.3-1.3-0.6-2.6-0.9-4-1.5 0.4-1.2 1.6-1.4 2.6-2 8.3-6.8 14.5-14.6 18-9.5 4.3-18.7 3.4-26.9-3-8.2-6.2-11.4-14.7-9.8-24.8 1.3-8.6 6-15.1 13.8-19.1q1.4-0.8 2.8-1.5c0.1-0.1 0.1-0.3 0.2-0.4-14.5-8-12.8-9-18.3-16.4-1.5 1.1-2 3-3.2 4.3-1.2 1.3-2.3 2.8-3.7 4-1.3 1.2-2.8 2.3-4.3 3.2-1.6 1-3.2 1.8-4.9 2.4-1.6 0.7-3.3 1.2-5.8 2 2.2 0.8 3.5 1.3 4.9 1.8 6.3 2.3 10.8 6.5 13.9 12.4 4.8 9.3 3.3 20.4-3.7 28.3-6.8 7.7-17.8 10.5-27.3 7.1-9.1-3.2-16.5-11.3-17.1-23-0.5-9.9 5.3-19.8 14.8-24 1.9-0.8 3.9-1.5 6.1-2.4-0.8-1.2-2-1-2.9-1.4-0.9-0.4-2-0.6-3-1q-1.4-0.6-2.9-1.3-1.4-0.8-2.6-1.7-1.5-1.1-2.9-2.3-1.2-1-2.2-2.2-1.1-1.2-2-2.5c-0.6-0.9-1.1-1.8-1.6-2.7-0.5-1-1-1.9-1.4-2.9-0.5-0.9-0.9-1.8-1.5-3.1-1.6 2.1-1.9 4.3-3.1 6-1.2 1.7-2.3 3.5-3.8 5-1.4 1.6-3.1 3-4.8 4.1-1.8 1.2-3.7 2.1-5.7 2.8-1.9 0.7-4.1 1.1-6.2 1.3-2 0.2-4.2 0.2-6.3 0-5.9-0.6-11-3.2-15.3-7.3-4.2-4-6.4-9.1-8.1-15.1-0.6 1.8-1.1 3.1-1.5 4.3-3.3 9.9-13.6 18.9-27.8 17.3-11.7-1.3-21.1-11.2-22.4-22.2-1.4-11.2 4-21.7 14-26.7q1.6-0.9 3.2-1.7c0.1-0.1 0.1-0.3 0.3-0.7-1.5-1.1-3.4-1.6-5-2.6-1.6-0.9-3.1-1.8-4.5-3-1.5-1.2-2.9-2.6-4.2-4.1-1.1-1.4-2.1-3-3-4.6-0.9-1.7-1.6-3.5-2.6-5.5-1.3 1.2-1.6 2.7-2.3 4-3.3 6.7-8.5 11.1-15.5 13.8-11.5 4.5-24.1-1.1-30-9.1-6.5-8.9-7.4-18.3-2.8-28.3q0.4-0.8 0.9-1.6c0.3-0.3 0.6-0.7 1.1-1.2 4.8-0.6 9.7-0.2 14.7-0.3 4.8 0 9.7 0 14.5 0 5 0 10 0 15.2 0 1.3 2.5 2.6 4.8 4.1 7.5 1.3-2.6 2.4-4.9 3.6-7.2 1-0.1 1.9-0.3 2.8-0.3q20.9 0 41.8 0c2.5 0 2.5 0.1 4.8 1.8 2.3-1.7 2.3-1.7 4.8-1.8q1.8 0 3.7 0 768.4 0 1536.8 0 1.8 0 3.6 0c2.5 0.1 2.5 0.1 4.8 1.7 2.5-1.6 2.5-1.7 4.4-1.7q22.1 0 44.1 0c0.4 0 0.9 0.2 1.6 0.3 0.9 1.5 1.9 3.1 3.1 5 1.2-1.9 2.2-3.5 3.3-5.2 14.9 0 29.8 0 44.7 0 3 3.3 3.6 7.5 4.7 11.4 1.2 0.3 1.1-0.5 1.2-1 0.7-3.6 2.1-7 4.3-10.1 3.5-0.8 7.1-0.3 10.7-0.4 3.5-0.1 7 0 10.5 0q5.4 0 10.9 0c3.4 0 6.9 0 10.1 0 5.9 6.5 7.1 18.8 1.8 28-5 8.8-15.1 14.1-25.2 13-11.8-1.3-19.5-8.6-23.5-22.5-1.3 0.2-1.1 1.3-1.3 2.1q-1.9 9-8.8 15c-2.4 2.1-5.1 3.8-8.2 4.8-1.8 0.7-3.6 1.3-6.1 2.1 2.1 0.8 3.6 1.3 5.2 1.9 5 1.7 9.1 4.7 12 9.1 5.9 8.7 6.5 17.9 1.3 27-5 8.9-13.1 13.4-23.3 12.8-10.4-0.7-17.9-6.1-22-15.8-5.7-13.8 2.1-28.8 14.6-33.1 1.6-0.5 3.1-1.1 4.9-1.8-8.6-3.9-11.2-1.7-21.9-17.3-5.9 8.6-4 9.3-18.4 17.7 1 0.6 1.8 1.1 2.7 1.6 8.6 4.4 13.5 11.4 14.6 21 1.5 12.7-7.7 25.4-20.2 28-13.4 2.8-25.7-4-30.5-16.8-0.6-1.6-1.1-3.1-1.8-5.3-0.5 1.3-0.9 2-1.1 2.8-1.2 4.6-3.3 8.8-6.6 12.3-12.6 13.4-34.8 10.7-43.6-5.6-0.7-1.4-1.5-2.9-2.5-4.8-2.4 5-4.6 9.4-8.4 12.8-3.7 3.4-8.3 5.4-12.9 6.9-0.1 1 0.5 1.2 1 1.4 2.9 1 5.6 2.3 8.1 4.1 8.8 6.6 12.4 18.2 8.9 28.8-3.3 10.1-13 17-23.8 17.3-10 0.3-22.6-6-25.6-20.7-2.4-11.8 4-23.9 15.2-28.5 1.2-0.5 2.5-1 3.7-1.4 0.2-0.9-0.3-1.2-0.9-1.4-3.2-0.9-6.3-2.2-9-4.1-3.1-2.1-5.5-4.7-7.6-7.8-0.5-0.8-1.2-1.6-2-2.6-2.5 3.5-4.6 7.2-7.9 9.6-3.1 2.3-6.5 4.2-9.8 6.3 14.8 7.2 18.8 21.6 16.3 31.1-2.8 10.6-11.7 18.9-22.7 20.1-4.4 0.5-8.7 0-12.9-1.6q-6.5-2.6-10.9-8c-2.7-3.5-4.5-7.4-5.4-11.7-1.8 0.5-1.5 1.8-1.8 2.7-2.3 7.1-6.5 12.6-13.1 16.2-13.5 7.3-30.2 2-37-11.2-0.6-1.2-1.2-2.4-1.8-3.6-2 3.2-3.8 6.3-6 9.2-2.1 2.8-4.9 5-8.1 6.5-3.2 1.4-6.7 2.5-10.3 3.7 0.4 0.8 1.4 0.7 2.1 0.9 6.7 1.6 12.2 5.1 16.1 10.9 8.7 13 3.1 30.9-11.2 36.9-12 5-26.2 0-32.1-11.9-5.9-11.9-1.8-26.1 9.7-32.8 3-1.7 6.4-2.6 9.8-4-0.6-0.3-1.1-0.6-1.7-0.8-9.4-1.8-16.3-6.9-20.6-15.4-0.3-0.5-0.8-0.9-1.3-1.6-2.5 4.1-4.7 8-8.1 11.1-3.5 3-7.6 4.9-12 6.6 0.5 1.4 1.7 1.6 2.8 2.1 3.4 1.4 6.4 3.4 8.8 6.2 6.9 8.1 8.8 17.2 4.7 27.1-4.1 10-12 15.5-22.8 15.9-10.8 0.4-18.9-4.7-23.9-14.3-7.2-13.9 0.3-29.1 12.1-34.5 1.2-0.6 2.4-1.2 4-2-1.5-1.4-3.2-1.5-4.5-2.2-1.3-0.8-2.8-1.3-4-2.1q-2.1-1.4-4-3c-1.1-1-2.2-2.2-3.1-3.3-1.1-1.3-2-2.6-3.2-4.2-1.8 1.3-2.3 3.3-3.6 4.6-1.4 1.5-2.7 3-4.1 4.2-1.4 1.2-2.9 2.2-4.5 3.2-1.6 1-3.3 1.8-4.9 2.6 0 1.3 0.8 1.6 1.4 1.9 8.9 4.5 13.6 11.9 14.6 21.5 0.7 6.9-1.4 13.3-5.9 18.6-7.2 8.4-16.4 11.4-27 8.6-10.3-2.8-16.8-9.8-18.9-20.5-2.2-10.8 3-21.8 12.6-27.4 1.1-0.6 2.6-0.8 3.3-2.5-2.1-1.1-4.3-2.1-6.2-3.4-1.9-1.3-3.7-2.7-5.3-4.3-1.7-1.6-3.2-3.6-4.8-5.6-2.5 2.8-4.7 5.7-7.4 8-2.6 2.2-5.7 3.9-8.8 6 0.8 0.7 1.6 1.4 2.4 1.9 5.7 3.7 9.7 8.6 11.5 15.2 3 10.7 0.2 19.9-7.9 27.2-13.8 12.5-35.4 7.1-42.2-9.8-0.6-1.7-1.2-3.3-2-5.2-1.3 1.3-1.4 2.9-1.9 4.2-4.1 10.4-11.6 16.5-22.7 17.8-10.7 1.3-21.4-4.4-26.5-13.9-0.8-1.5-1.5-3-2.4-4.9-0.6 1.1-1.1 1.7-1.4 2.5-4.2 9.5-11.6 15-21.6 16.8-7.8 1.3-14.7-1.1-20.9-5.8-3.5-2.7-6.1-6.2-7.9-10.3-0.5-1-0.9-1.9-1.6-3.3-0.6 0.9-1 1.4-1.3 2-3.6 8.9-10.1 14.5-19.3 17.1-0.8 0.3-1.7 0.6-3 1.1 1.6 0.5 2.9 0.9 4.1 1.3 12.6 4.4 19.5 17.2 16.1 30.2-2.5 9.4-11.1 16.8-20.7 17.9-10.4 1.2-20.1-3.7-24.8-12.5-7.6-14-0.9-30.8 14.2-35.7 1.2-0.4 2.3-0.7 3.7-1.1-3.3-1.3-6.4-2.2-9.3-3.6-2.9-1.4-5.5-3.4-7.5-5.9-2.1-2.5-3.9-5.3-5.8-8-8.3 12.9-10.2 12.8-20.9 17.6 1.7 0.7 3.2 1.3 4.7 2 10.3 4.8 16 15.7 14.1 26.9-1.9 11.1-10.8 19.4-21.9 20.5-11.5 1.1-21.8-5.1-26-15.7-4.8-12.3 0.7-26 12.7-31.7 1.5-0.7 3-1.3 4.7-2.1-10-4.6-12.3-4.1-21-17.9-6.2 10.1-6.6 11.6-20.3 18 1.4 0.7 2.5 1.3 3.7 1.8 6.9 3.2 11.4 8.4 13.7 15.6 4.3 13.9-4.7 29-19 31.9-14 2.7-28-6.3-30.1-21.8-1.2-9.8 4-20 12.7-24.7 1.7-1 3.5-1.7 5.7-2.8-2-1.3-4.1-1.7-5.8-2.7-2-1.1-4-2.3-5.7-3.7-1.6-1.3-3.1-2.9-4.4-4.6-1.3-1.6-2.4-3.4-3.4-5-1.1-0.3-1.4 0.4-1.6 0.8-3.7 6.9-9.3 11.5-16.6 14.2-0.5 0.2-1 0.5-2 0.9 1.5 0.8 2.7 1.4 3.9 2q8.1 3.8 11.9 11.9c7.2 14.9-1.8 32.1-17.2 35.5-14.2 3.1-29.1-6.5-30.6-22.7-0.9-9.8 4.6-19.7 13.6-24.4 1.4-0.7 3.1-1 4.4-2.5-4.3-1.8-8.5-3.6-11.9-6.7-3.3-2.9-5.4-6.7-8-10.6-2.4 4.1-4.7 7.8-8 10.8-3.4 2.9-7.3 4.7-11.5 6.4 0.5 1.8 2.2 1.7 3.3 2.2 5.8 2.8 10.1 7.1 12.5 13.1 6.3 15.3-3.3 31.4-18.1 34.5-13.2 2.7-29.6-6.1-30.2-24.1-0.4-10.2 4.4-18 13.4-23 1.5-0.7 3-1.4 4.9-2.3-3.1-1.5-5.9-2.5-8.3-4.1-2.4-1.6-4.6-3.5-6.5-5.6-2-2.3-3.4-5-5.3-7.7-1.5 1.1-1.7 3-2.8 4.3-1.1 1.5-2.1 3-3.4 4.3-1.2 1.3-2.6 2.5-4 3.6-1.5 1-3.1 1.9-4.7 2.8-1.6 0.8-3.2 1.4-5.3 2.3 1.6 0.8 2.8 1.4 4 2 8.4 4.2 13.2 10.9 14.3 20.2 1.4 12.4-7.1 24.3-19.3 27.1-14.2 3.3-29.8-6.1-30.9-23.1-0.6-10.2 3.9-18.2 12.8-23.4 1.5-0.9 3.2-1.6 4.8-2.4-0.1-1.3-1.3-1.2-1.9-1.5-0.9-0.6-2-0.9-2.9-1.3q-1.3-0.6-2.4-1.3-1.2-0.7-2.3-1.5-1.2-1-2.4-2.1-1-0.9-1.9-1.9-0.9-1-1.7-2.1c-0.7-0.9-1.2-1.8-1.7-2.7-0.5-0.8-1-1.5-1.7-2.5-1.6 1.2-2.1 3-3.2 4.3-1 1.3-2 2.7-3.2 3.8-1.3 1.3-2.7 2.5-4.2 3.5-1.3 1-2.8 1.8-4.3 2.5-1.6 0.8-3.3 1.4-5 2.1 0.3 1.4 1.5 1.3 2.4 1.6 5.5 2.3 9.9 5.9 12.7 11.2 4.6 8.5 4.6 17.2-0.6 25.4-5.1 8.4-12.8 12.3-22.5 11.8-15.5-0.8-26.3-14.9-23.2-30 1.6-7.9 6.2-13.7 13.4-17.4 1.4-0.7 3-1.3 4.9-2.2zm874.5-160.9c6 5.5 8.8 3.8 15.3 20.8 0.7-2 1.3-3.9 2-5.6 0.8-1.7 1.6-3.3 2.6-4.8 1.1-1.7 2.3-3.2 3.7-4.6 1.3-1.2 2.8-2.2 4.3-3.3 1.5-1.1 3.6-1.4 4.8-2.9-3.3-2.2-6.7-3.9-9.5-6.3-2.8-2.5-5-5.6-7.7-8.6-1.4 2.1-2.6 4.1-4.1 6-1.5 1.8-3.3 3.5-5.1 5-1.9 1.6-4 2.7-6.3 4.3zm-1556.3-0.4c5.1 2 9.1 4.4 12.3 7.9 3.3 3.6 4.9 8.1 6.5 12.7 0.2-0.2 0.3-0.4 0.4-0.5q0.3-0.8 0.6-1.7c2.1-7.5 6.4-13.2 13.3-16.9 0.5-0.2 0.8-0.7 1.1-1.1-3.1-2.3-6.3-4.1-8.8-6.6-2.7-2.5-4.8-5.6-7.2-8.5-7.7 9.5-7.7 9.5-18.2 14.7zm179.2 76.4c3.9-11.4 2.9-12.1 15.1-22-2.9-2.1-6.1-3.9-8.7-6.3-2.6-2.4-4.7-5.3-6.9-7.9-2.6 2.8-4.9 5.7-7.7 7.9-2.9 2.3-6.3 3.9-9.6 5.9 2.2 1.2 4.4 2.3 6.3 3.7 1.9 1.4 3.8 3.1 5.3 4.9 1.6 2 2.9 4.3 3.9 6.6 1 2.2 1.4 4.5 2.3 7.2zm213.9 18.4c-1.3 1.6-2.4 3-3.6 4.3-1.2 1.2-2.4 2.4-3.7 3.4-1.4 1.1-3 1.9-4.5 3-1.4 0.9-3.3 1.1-4.8 2.7 1.2 0.7 2.1 1.2 3 1.7 2.1 1.5 4.2 2.9 6.1 4.6 3.1 2.8 5.1 6.3 6.5 10.2 0.4 1.2 0.2 2.8 1.8 3.4 0.2-0.4 0.5-0.8 0.6-1.2 2.1-7.7 6.5-13.5 13.5-17.4 0.4-0.2 0.6-0.8 1-1.2-3-2-5.9-3.6-8.4-5.7-2.6-2.2-4.8-5-7.5-7.8zm1017.4-20.6c6.5-16 9.5-14.9 17.2-20.3-3-1.8-6.2-3.3-8.9-5.4-2.7-2.2-5.1-5.1-7.7-7.8-1.5 1.8-2.7 3.7-4.2 5.3-1.7 1.8-3.5 3.4-5.4 4.8-1.7 1.4-3.7 2.5-5.6 3.7 6.5 5.5 9.4 5.6 14.6 19.7zm-948.8 34.6c-3.1-2.2-5.9-3.8-8.2-5.8-2.5-2.2-4.5-4.7-6.7-7.1-2.4 2.5-4.5 4.9-6.9 6.9-2.6 2.1-5.5 3.7-8.4 5.6 0.5 0.5 0.9 0.9 1.4 1.2 6.9 3.9 11.5 9.6 13.3 17.4 0.2 0.6 0.7 1.2 1.1 1.9 0.8-2.3 1.4-4.4 2.2-6.3 0.8-1.8 1.7-3.5 2.8-5.1 1.2-1.7 2.7-3.3 4.2-4.7 1.5-1.4 3.3-2.6 5.2-4zm681.3-12.4c-0.4 0.4-1 0.7-1.3 1.2q-4.8 6.4-12 10.2c-0.4 0.2-0.6 0.8-0.9 1.2 8.4 6.6 9.4 8 13.2 18.1 0.2 0.4 0.4 0.7 0.9 1.7 1.4-4.8 2.9-8.6 5.4-11.9 2.5-3.4 6.1-5.7 9.6-8.3-2.8-1.9-5.6-3.4-8-5.4-2.5-2-4.5-4.4-6.9-6.8zm-1070.8-78.8c3.7-7.1 2.7-7.8 12.4-16.6-1.7-1.3-3.5-2.4-5.1-3.8-1.5-1.2-2.8-2.7-4.2-4-1.5-1.4-2.2-3.5-4-4.8-0.6 0.6-1.1 1.1-1.4 1.5-3 3.9-6.7 7-11.1 9.2-0.6 0.3-1.4 0.5-1.3 1.5 7.1 5.1 8.4 4.8 14.7 17zm427.9 107.6c0.7-0.8 1.1-1 1.3-1.4 2.1-5.7 5.7-10.2 10.7-13.7 0.4-0.2 0.6-0.8 0.9-1.3-2.4-1.7-4.7-3.1-6.8-4.8-2.1-1.8-4-3.9-5.8-5.6-1.5 1.3-2.9 2.5-4.2 3.7-1.6 1.2-3.1 2.4-4.7 3.6-1.4 1-2.9 1.9-4.4 2.8 2.7 2.5 5.4 4.7 7.8 7.2 2.4 2.5 3.8 5.7 5.2 9.5zm-268-81.5c-1.5 1.5-2.8 2.9-4.2 4.2-1.4 1.2-2.8 2.3-4.2 3.4-1.5 1.1-3.5 1.6-5.1 3.2 1.7 1.3 3.2 2.2 4.6 3.3 1.3 1.1 2.5 2.2 3.6 3.5 1.1 1.3 2.2 2.8 3.1 4.4 0.9 1.4 1.7 3 2.6 4.8 2-3.1 3.4-6.1 5.4-8.6 2.1-2.6 4.7-4.7 7.1-7.1-2.2-1.6-4.6-3.1-6.7-4.9-2.2-1.9-4-4-6.2-6.2zm1299.9-43.4c-5.3-2.8-9.7-6.2-13.2-11.1-1.5 1.8-2.7 3.3-4 4.7q-1.8 2-3.9 3.8c-1.5 1.2-3 2.3-4.6 3.5 2.3 2.5 4.7 4.6 6.6 7.2 1.8 2.4 3.2 5.3 4.8 8.1 7.4-13 8.3-11.2 14.3-16.2zm-442.3 98.2c-2.1 2.1-4 4.1-6 5.8-2.1 1.7-4.4 3.1-6.5 4.7 2.5 2.6 5.1 4.7 7.1 7.3 1.9 2.5 3.3 5.5 5 8.2 1.9-3.1 3.5-6.2 5.7-8.9 2.1-2.6 4.9-4.6 7.5-7-2.5-1.6-4.8-3-6.9-4.6-2.1-1.7-4-3.7-5.9-5.5zm255.6-43.5c1.7 1.6 3.4 2.9 4.8 4.4 1.5 1.7 2.9 3.5 4.1 5.4 1.1 1.6 2 3.5 3.1 5.6 0.9-1.9 1.6-3.4 2.4-4.8 1-1.5 2-3 3.2-4.4 1-1.2 2.4-2.2 3.5-3.4 1.2-1.3 3.2-1.6 4-3.3-0.4-0.4-0.6-0.7-0.8-0.8-4.1-2.1-7.7-4.8-10.7-8.3-0.3-0.4-0.9-0.5-1.5-0.9-3.3 4.4-7.4 7.6-12.1 10.5zm-791.2 70.2c1.1-2.4 1.9-4.3 3-6.1 1.2-1.9 2.6-3.7 4.1-5.4 1.3-1.6 3-2.9 4.6-4.5-2.3-1.6-4.4-3-6.3-4.7-2-1.7-3.8-3.7-5.8-5.6-2.1 1.9-3.8 3.8-5.8 5.4-2.1 1.7-4.3 3.1-6.5 4.7 9.7 8.6 7.8 7.6 12.7 16.2zm494.1-16.1c-2.3-1.6-4.5-3-6.4-4.6-2.1-1.7-3.9-3.6-5.9-5.5-2.1 2-3.8 4-5.7 5.6-1.9 1.7-4 3.1-6 4.6 2.4 2.5 4.8 4.6 6.7 7.1 1.9 2.6 3.3 5.5 5.1 8.6 1.1-2.2 2-4.3 3.2-6.2 1.1-1.8 2.4-3.4 3.9-5 1.5-1.6 3.2-2.9 5.1-4.6zm-774.2-54.3c2.3 2.2 4.7 4.1 6.6 6.3 2 2.4 3.6 5.1 5.5 8 1.5-2.5 2.7-4.9 4.3-7.1 1.7-2.2 3.8-4.2 5.9-6.5-2-1.5-3.9-2.9-5.7-4.5-1.7-1.6-3.4-3.3-5.2-5.2-1.9 1.8-3.6 3.4-5.5 4.9-1.9 1.5-3.9 2.7-5.9 4.1zm1030.1-8.3c-3.5 3-6.8 6-10.3 9.1 1.4 1.4 2.8 2.6 3.9 3.9 1.2 1.4 2.2 2.9 3.3 4.4 1.1 1.3 1.3 3.3 3.3 4.7 2.3-5.6 6.2-9.7 10.7-13.3-3.7-3-7.1-5.8-10.9-8.8zm-654.3 63c5.1 3.6 8.4 8.2 11 13.8 1.6-2.7 2.9-5.1 4.5-7.2 1.7-2.2 3.8-4.2 5.9-6.5-1.9-1.5-3.6-2.9-5.4-4.2-2-1.3-3.2-3.6-5.4-4.7-1.7 1.6-3.3 3.1-4.9 4.4-1.7 1.5-3.5 2.7-5.7 4.4zm-42.3-9.1c-2.1 1.8-3.7 3.4-5.5 4.8-1.7 1.4-3.5 2.6-5.1 3.8 2 2.2 4 4.1 5.6 6.2 1.8 2.2 3.2 4.7 5 7.3 1.6-2.4 2.9-4.8 4.5-6.8 1.8-2.3 3.9-4.2 6.1-6.5-1.9-1.4-3.7-2.7-5.4-4.1-1.8-1.4-3.4-3-5.2-4.7zm375.1 0.4c-3.5 3-6.9 5.8-10.4 8.7 1.9 2 3.9 3.8 5.5 5.9 1.7 2.1 3 4.5 4.7 7.1 1.5-1.6 2-3.6 3.2-5.1q1.7-2 3.5-4.1c1.2-1.5 3.1-2.3 4-4.1-3.6-2.8-6.9-5.5-10.5-8.4zm-53.9 22.3c1.7-2.7 3.2-5.1 4.7-7.5 1.6-2.4 4.2-3.8 5.8-6.4-1.9-1.4-3.6-2.6-5.2-3.9-1.8-1.4-3.4-2.9-5.1-4.4-1.7 1.6-3.3 3-4.8 4.5-1.5 1.6-3.8 2.3-5.3 4.4 4.2 3.8 7.6 7.9 9.9 13.3zm-160.7-0.9c1.4-2.3 2.7-4.5 4.2-6.5 1.6-2.2 3.6-4 5.6-6.2-1.8-1.5-3.5-2.7-5-4-1.6-1.4-3.2-2.9-4.8-4.4-1.7 1.5-3.2 3-4.8 4.3-1.6 1.4-3.3 2.6-5.1 4.1 1.9 2 3.7 3.8 5.3 5.8 1.6 2.1 3 4.5 4.6 6.9zm63.7-12.7c-3.6-2.9-6.8-5.6-10-8.2-1.8 1.6-3.4 2.9-4.9 4.4-1.4 1.5-3.6 2-4.7 3.9 1.9 2.1 3.8 3.9 5.3 5.9 1.6 2 2.8 4.2 4.4 6.7 1.5-2.3 2.8-4.5 4.3-6.5 1.7-2.1 3.6-4 5.6-6.2zm-107.7 0.1c-3.4-2.8-6.4-5.3-9.5-7.8-3.2 2.6-6.3 5.2-9.6 7.9 1.3 1.4 2.5 2.5 3.6 3.7 1.1 1.2 2.1 2.5 3.1 3.8 1 1.3 1.5 3 3.1 4.1 2.4-4.5 5.5-8.2 9.3-11.7zm-609.2-108.4c1.5 1.3 2.9 2.4 4.1 3.6 1.2 1.1 2.2 2.5 3.4 3.7 1.2 1.2 1.6 3.1 3.1 4.1 2.9-3.7 5.6-7.2 8.6-11-1.5-1.2-3-2.7-4.6-3.9-1.8-1.3-2.6-3.7-4.8-4.4-3.3 2.7-6.5 5.2-9.8 7.9zm760.4 120.4c1.8-2.6 3.1-4.6 4.5-6.5 1.4-2.1 3.7-3.4 5-5.7-1.7-1.3-3.2-2.6-4.8-3.7-1.7-1.1-2.7-3.2-4.7-3.8-3.2 2.6-6.1 5-9.3 7.7 3.5 3.5 6.9 6.9 9.3 12zm589.6-109.2c2.2-4.6 5.6-7.8 9.3-11-1.7-1.4-3.2-2.6-4.8-3.7-1.6-1.1-2.6-2.9-4.6-3.7-2.5 3.1-5.8 5.2-8.3 7.9 2.8 3.5 5.3 6.6 8.4 10.5zm-1125 53.8c2.7-3.6 5.3-6.9 7.9-10.4q-4.2-3.6-8.4-7.3c-3 2.5-5.7 4.7-8.4 6.9 3 3.7 5.9 7.1 8.9 10.8zm911.2-17.2c-2.8 2.4-5.2 4.5-7.9 6.8 2.5 3.1 4.8 6.1 7.4 9.4 1.4-1.8 2.6-3.5 3.9-5.1 1.4-1.7 3.4-2.8 4.4-4.9-2.6-2.1-5.1-4-7.8-6.2zm-1072.3-38.6c1.9-2.5 3.6-4.8 5.5-7.4-2.5-2.1-4.3-4.6-7.2-6.2-1.8 2-4.3 2.9-5.6 5.1 2.5 2.9 4.8 5.6 7.3 8.5zm1024.9 45.6c-1.9-2.1-3.9-3.7-6.2-5.1-1.2 1.1-2.2 1.9-3.2 2.9-0.9 0.9-2.4 1.3-2.5 3 1.3 1.7 2.6 3.6 4 5.3 0.5 0.5 1.1 0.9 1.6 1.4 2.2-2.6 4.2-5 6.3-7.5zm208.6-59c-2.3 2.1-4.6 3.7-6.1 6.1 0.9 1.2 1.8 2.3 2.6 3.4 0.8 1 1.5 2.1 2.5 3.4 1.2-1.5 2.3-2.8 3.3-4.1 1.1-1.3 2.7-2.3 3.6-4.1-2.1-1.6-3.9-3.1-5.9-4.7zm-1025.3 59c2.2 2.5 4.2 4.9 6.4 7.4 2.1-2.3 3.8-4.5 5.5-6.9-2.3-1.8-3.9-4-6.5-5-1.8 1.5-3.5 2.9-5.4 4.5zm60.5-4c-2.1 1.6-4 2.8-5.4 5 1.7 1.6 2.8 3.7 4.9 5.4 1.7-2.3 3.7-4 4.9-6.7-1.5-1.2-2.8-2.3-4.4-3.7zm695.4 9.8c2.1-1.6 3.4-3.4 4.7-5.5-1.6-1.7-3.1-3-5-4-1.8 0.9-3.2 2.1-4.4 3.8 1.6 2 3.1 3.8 4.7 5.7zm-642.8-1.5c1.9-1.8 3.2-3.1 4.3-5.4q-0.9-0.6-1.9-1.2c-0.6-0.3-1.2-0.7-2-1.2-1.3 1.2-2.5 2.3-3.8 3.5 1.2 1.5 2.2 2.7 3.4 4.3zm50.4-4.7c1 1.4 1.8 2.8 3.5 3.5 1.5-1.2 2.6-2.6 3.6-4.4-1.1-0.8-2.1-1.7-3.2-2.6-1.6 1-2.9 1.9-3.9 3.5zm-317.5-56.1c-1.4 1.2-2.6 2.3-4.1 3.6 1.2 1.3 2.1 2.3 3.1 3.5 1.9-1.3 3.1-2.7 4-4.8-1-0.7-1.9-1.4-3-2.3zm856.2 52.9c-1.1 1-1.9 1.6-2.6 2.3-0.2 0.2-0.2 0.6-0.4 1.2 1.2 1 1.9 2.7 3.5 3.6 1.6-0.9 2.6-2.1 3.2-3.9-1.1-1-2.2-1.9-3.7-3.2zm-50 3.2c-0.6-1.6-1.8-2.6-3.3-3.3-1.5 0.5-2.6 1.3-3.3 3 1.1 1.2 2.1 2.4 3.2 3.6 1.8-0.6 2.4-2 3.4-3.3zm321.6-52.7c-1.5-1.3-2.5-2.3-3.5-3.1-1.7 0.2-2.4 1.1-2.7 2.4 1.1 1.1 1.7 2.7 3.4 3.5 0.9-0.8 1.7-1.6 2.8-2.8zm-1077.4-0.5c0.6 0.6 1.3 1.3 2.2 2.3 1.1-1.4 2-2.5 3.4-4.1-0.8-0.6-1.3-1.1-1.8-1.5-1.8 0.8-3 1.6-3.8 3.3zm378.3 49.5c-1.8 1.2-3.2 1.6-3.3 3.5 0.7 0.6 1.4 1.2 2.2 1.9 1.4-0.8 2.5-1.5 2.8-3.7-0.3-0.4-0.9-1-1.7-1.7zm-54.5 5.8c1.6-0.8 2.6-1.6 2.9-3.3-0.8-0.6-1.5-1.2-2.5-1.9-0.9 0.9-1.7 1.7-2.7 2.5 0.9 1 1.5 1.8 2.3 2.7zm324.5-3.2c-1.2-1-1.9-1.7-2.7-2.4-1.2 0.7-2.3 1.1-2.2 2.9q0.9 0.9 2.4 2.3c0.9-1 1.5-1.7 2.5-2.8zm53.2 0.7c-2.4-3.1-2.6-3.1-4.7-0.3 0.8 0.8 1.5 1.6 2.5 2.6 0.9-0.9 1.5-1.6 2.2-2.3zm319.4-51c2.1-2.3 2.1-2.8 0.4-4.2-1.2-1-1.5-0.8-3.1 1.2 0.8 0.9 1.6 1.8 2.7 3zm-536 48c-1.4 0.5-2.4 1.1-2.4 2.8q1 0.8 2.3 2c0.8-0.9 1.5-1.7 2.4-2.6-0.9-0.9-1.7-1.5-2.3-2.2zm51.2 2.2c0.8 1 1.5 1.7 2.2 2.4 2.5-1.8 2.8-2.3 2-3.3-1.2-1.5-1.9-1.3-4.2 0.9zm-104.8-2.1c-0.7 1-1.5 1.6-1.6 2.2 0 0.5 0.8 1.2 1.3 1.5 0.6 0.3 2-0.7 1.8-1.4-0.1-0.7-0.8-1.3-1.5-2.3zm161.2 3.7c0.3-0.4 0.9-1 1.1-1.7 0.2-0.8-1.2-1.8-1.8-1.4-0.6 0.3-1.2 0.9-1.3 1.5-0.2 0.8 0.8 1.7 2 1.6zm-535.3-56.5c-0.3 0-0.5 0-0.6 0.1-0.7 0.4-1.2 0.8-1 1.7 0.1 0.1 0.2 0.2 0.4 0.2 0.8 0 1.2-0.5 1.4-1.3 0-0.1-0.1-0.3-0.2-0.7zm-376.5 25.7c0-12.3-8.5-24.4-25-25.3-13.4-0.7-25.1 11.5-25.1 25.1-0.1 13.9 11 25.1 24.9 25.2 13.9 0.1 25.2-11.1 25.2-25zm320.5 108.2c0.2-13.9-10.9-25.3-24.8-25.4-14.4-0.1-25.1 11.6-25 25 0 13.7 11.1 24.8 24.7 24.9 13.7 0.1 24.8-10.9 25.1-24.5zm1259.5-79.1c-13.6 0-24.9 11.3-24.7 24.9 0.2 13.7 10.9 24.5 24.6 24.6 13.8 0 24.8-10.8 24.8-24.7 0.3-13.1-10.5-24.8-24.7-24.8zm-1498.1 0.2c-14.1-0.1-24.8 11.4-24.7 24.8 0.2 13.5 11.2 24.4 24.8 24.3 13.5-0.1 24.3-11 24.3-24.6 0.3-11.2-8.6-24.4-24.4-24.5zm1016.8 107c-13.5-0.1-24.5 10.8-24.6 24.3 0 13.6 10.9 24.6 24.4 24.7 13.5 0 24.5-10.9 24.6-24.4 0-13.6-10.9-24.6-24.4-24.6zm320.8-53c-14.1-0.2-24.6 10.9-24.8 24.2-0.1 12.8 9.7 24.6 24.3 24.8 14.2 0.2 24.6-11.1 24.7-24.3 0.2-12.7-9.5-24.5-24.2-24.7zm-880.7 77.7c0.1 13.9 11.2 24.3 24.7 24.2 14-0.2 24.2-11.3 24.1-24.4-0.1-15.2-12.1-24.5-24.5-24.5-12.2 0.1-24.4 9.5-24.3 24.7zm-295.9-77.5c-13-0.2-24.7 9.7-24.7 24.3 0.1 14.4 11.4 24.3 24.3 24.3 13.5 0 24.1-10.3 24.4-24.2-0.1-13.6-10.3-24.2-24-24.4zm1473.7-83.5c-0.1 13.4 10.4 24.2 24.2 24.2 14.4 0 24.2-11.2 24.2-24.2 0-13.3-9.9-23.9-24.2-24.3-13.6 0.3-24.2 10.4-24.2 24.3zm-540.9 161c0.1-12.8-9.7-24.2-24.2-24.4-13.2-0.1-23.9 10.7-24 23.9-0.1 13.5 10.6 24.3 24.1 24.3 13.7 0.1 23.9-10.9 24.1-23.8zm-641.4 0.1c0.2-13.4-10.6-24.4-24-24.4-13.3 0-24 10.6-24 24-0.1 13.3 10.4 23.9 23.8 24 13 0.3 24-10.2 24.2-23.6zm-613.5-185c-13.4 0.1-23.8 10.6-23.7 24 0.1 13.3 10.7 23.8 24.1 23.8 13.3-0.1 23.8-10.7 23.7-24.1-0.1-13.4-10.6-23.8-24.1-23.7zm1713.3 53.9c-13.4 0-24 10.5-24 23.9 0 13.1 10.4 23.5 23.5 23.8 14.4 0.2 24.3-11.7 24.3-23.6 0.1-13.3-10.6-24-23.8-24.1zm-1730.2-63.7c10 8.8 24.9 8.6 34.7-0.4 9.7-8.9 10.9-24.4 3.3-33.6-3.4-0.5-35.5-0.6-41.8-0.2-7.7 10.9-6.1 25.6 3.8 34.2zm1325.4 194.7c0.1-13.2-10.6-24-23.9-23.9-13.1 0-23.6 10.4-23.6 23.6 0 13.2 10.4 23.7 23.5 23.8 13 0.2 23.8-10.5 24-23.5zm244.2-76.9c-13.3-0.2-23.9 10.4-24.1 23.3-0.3 13.1 10.5 24 23.7 24.1 13 0 23.7-10.5 23.8-23.5 0.1-13.1-10.3-23.7-23.4-23.9zm-1017 100.3c13 0 23.7-10.8 23.6-23.7-0.2-13.7-11.2-23.7-23.8-23.6-13.2 0.1-23.6 10.6-23.5 23.7 0 13.2 10.6 23.7 23.7 23.6zm-404-130.6c0-13-10.6-23.6-23.7-23.6-13.1 0-23.6 10.5-23.6 23.7 0 13.1 10.4 23.5 23.7 23.5 13.1 0 23.6-10.4 23.6-23.6zm136.1 77.5c13.1 0.1 23.7-10.5 23.7-23.6 0-12.9-10.3-23.3-23.3-23.5-13.2-0.1-23.8 10.2-23.8 23.4-0.1 13.2 10.3 23.7 23.4 23.7zm1070.5 6.2c-13.7 0.2-22.9 10.9-23 23.2-0.2 12.8 10.5 23.5 23.3 23.4 12.7-0.1 23-9.8 23.3-23.5-0.4-13.6-10.6-23.3-23.6-23.1zm-855.5 0.1c-13.7-0.2-23.4 10.8-23.4 23.1 0 12.7 10.2 23.1 22.9 23.3 12.9 0.1 23.5-10.3 23.5-23.2 0-11-8-23-23-23.2zm1413.4-136.7c0.4-12.9-9.5-23.8-22.5-24.1-12.8-0.4-23.6 9.2-23.9 22.7-0.2 13.6 10.6 23.5 22.5 23.6 14.2 0.5 23.6-11.3 23.9-22.2zm-40.3-35.7c9.5 8.9 24 9 33.8 0.3 9.6-8.5 11-22.9 3.3-33.2-3.8-0.5-36.1-0.5-39.9 0-6.6 7.2-8 22.7 2.8 32.9zm-250.5 119.6c-12.6 0-22.8 10-23 22.6-0.2 12.8 9.9 23.2 22.6 23.3 12.8 0.2 23.2-10 23.2-22.8 0.1-12.8-10-23-22.8-23.1zm-1675.2-119.8c9.8 9.2 24.8 8.9 34.5-0.4 9.5-9.2 9.4-24.9 1.8-32.6-12.8 0-25.8 0-38.6 0-8 9.6-6.9 24.3 2.3 33zm1858.9 88.6c-0.1-11.9-10.3-22.9-23.3-22.7-12.2 0.1-22.6 10.4-22.6 23 0 12.6 10.3 23.1 23.1 22.8 12.6 0.2 22.9-10.6 22.8-23.1zm-1841.8-76.5c-12.6 0-23 10.3-22.9 23 0.1 12.7 10.8 22.8 22.8 22.8 12.2 0 23.3-10.5 22.9-23.1 0.2-12-10.1-22.7-22.8-22.7zm267.6 107.9c-11.8-0.1-22.8 9.3-22.8 22.8 0 13.6 11.2 22.8 22.8 22.8 12.6 0 22.8-10.2 22.8-22.8 0-12.7-10.2-22.8-22.8-22.8zm1176.7 53.1c-12.5 0-22.6 9.9-22.8 22.3-0.2 12.5 10 23 22.5 23.1 12.6 0.2 22.8-9.9 22.9-22.6 0.1-12.7-9.9-22.8-22.6-22.8zm-963 45.3c12.8 0.1 22.6-10.1 22.8-22.4 0.1-13.2-10.5-22.7-22.2-22.9-12.8-0.2-23 9.7-23.2 22.4-0.2 11.9 9.2 22.9 22.6 22.9zm-351.8-129.5c0.1-13-10.5-22.9-22.7-22.8-12.4 0-22.5 10-22.7 22.4-0.2 12.7 9.9 23 22.5 23 11 0.4 22.8-8.3 22.9-22.6zm1828.8-96.1c4.6 8.6 12 13.2 21.7 13 18.7-0.4 29.1-20 20.3-35.9-1.3-2.2-2.9-3.1-5.4-3-10.4 0.1-20.9 0-31.3 0-0.7 0-1.5 0.1-2.4 0.1-5.9 6.4-7.3 17.4-2.9 25.8zm-460.3 180.8c-12.5 0.1-22.1 9.9-22 22.3 0.1 12.1 9.8 22.1 22.3 22 12.4-0.1 22.1-10 22.1-22.3-0.1-12.3-10.1-22.1-22.4-22zm214-52.9c-11.3-0.1-22.2 9-22.2 22.2 0.1 13.3 11.4 22.2 22.5 22 11.2-0.2 21.8-9.2 21.6-22.2 0.1-12.7-10.3-22-21.9-22zm245.6-85.9c-0.1 12.4 10.4 22.1 21.8 22.2 11 0.2 22.4-9.1 22.2-22.1-0.2-12.3-9.7-21.9-22-21.9-12.5-0.1-22 10.3-22 21.8zm-2028.2-36.1c9.2 8.9 23.1 9.4 32.8 0.4 9.1-8.4 9.9-22.5 1.8-32-11.9 0-24 0-35.9 0-8.1 9.1-7.5 23 1.3 31.6zm476.1 196.8c-0.1 12.2 9.4 21.9 21.6 22.2 12.1 0.4 22.4-9.7 22.4-21.9 0-12.8-10.6-22.2-21.9-22-11.7-0.3-22 9.3-22.1 21.7zm-191.7-74.7c-11.8-0.1-22 9.6-22 21.8-0.1 12.6 10.2 22.1 21.8 22.1 12.4 0.1 22.2-10.1 22-21.8 0.3-11.5-9.1-21.9-21.8-22.1zm1680.8-31.9c0-12.2-9.7-22-21.8-22-12.1 0-22 9.8-22 21.9-0.1 12.1 9.7 21.9 21.8 21.9 12.3 0.1 22-9.5 22-21.8zm-855.9 160.8c0-12.1-9.8-21.9-21.9-22-12.1 0-21.8 9.6-21.9 21.8-0.1 12.3 9.4 21.9 21.7 22 12.3 0 22-9.6 22.1-21.8zm-54 0.1c0.2-12.3-10.3-22.2-21.7-22.1-12.2 0-22 9.6-22.1 21.7-0.1 12.3 9.5 22 21.7 22.1 12.4 0.1 21.9-9.4 22.1-21.7zm106.9-0.4c-0.1-11.9-9.9-21.6-21.8-21.6-12.1-0.1-21.9 9.7-21.9 21.9-0.1 11.9 9.7 22 21.9 21.7 12.3-0.1 21.9-9.8 21.8-22zm-160.8 0.2c0-12.1-9.9-21.9-22-21.8-12 0-21.6 9.6-21.6 21.6-0.1 12.4 9.3 22 21.6 22 12.3 0 22-9.6 22-21.8zm-984.4-236.4c-11.8-0.2-22 9-22.2 21.6-0.1 11.9 9.6 22 21.9 22 11.8 0.1 21.6-9.8 21.7-21.6 0.1-12.1-9.4-21.8-21.4-22zm909.7 214.6c-12.1 0-22 9.9-21.9 21.9 0 12.2 9.8 21.8 22 21.6 12.1-0.1 21.4-9.6 21.4-21.7 0-12-9.6-21.7-21.5-21.8zm-802.9-160.7c-13.3-0.2-22.1 10.7-22 21.8 0 11.9 9.7 21.6 21.6 21.7 12 0 21.7-9.6 21.8-21.6 0.2-11-8.4-21.7-21.4-21.9zm1070.4 160.8c-11.1 0-21.7 8.8-21.7 21.6-0.1 13 10.6 22 21.9 21.8 12-0.1 21.5-9.7 21.5-21.8 0-11.8-9.8-21.6-21.7-21.6zm-300 21.9c0.1-11.9-9.6-21.8-21.4-21.9-11.8-0.1-21.8 9.8-21.9 21.6-0.1 11.9 9.6 21.7 21.5 21.7 12.1 0.1 21.8-9.4 21.8-21.4zm727.3-75.6c-11.7 0.1-21.3 9.8-21.4 21.4-0.1 11.8 9.8 21.7 21.6 21.7 11.9 0.1 21.6-9.8 21.6-21.6-0.1-12-9.9-21.7-21.8-21.5zm-374.1 53.9c-11.8-0.1-21.7 9.7-21.7 21.6 0.1 11.8 9.7 21.4 21.4 21.4 11.9 0 21.4-9.5 21.5-21.3 0.1-11.8-9.4-21.5-21.2-21.7zm-781-32.2c0.1-12.9-9.9-21.3-21.1-21.5-11.7-0.3-21.5 9.4-21.6 21.2-0.1 11.7 9.4 21.4 21.2 21.5 11.3 0.2 21.4-8.5 21.5-21.2zm353.3 32.3c-10.3 0-21.3 8-21.4 21.4 0 12.8 9.9 21.3 21.3 21.4 11.8 0.1 21.4-9.5 21.4-21.3 0.1-11.7-9.6-21.4-21.3-21.5zm1261.8-239.7c2.9 8.8 9 14.3 18.1 15.7 9.5 1.5 17.4-1.9 22.6-10.1 5.1-7.9 4.8-16.2 0-24.4-1.1-2-2.6-2.9-5.1-2.8-9.5 0.1-19 0-28.5 0-0.7 0-1.5 0.1-2.6 0.2-5.1 6.6-7.1 13.6-4.5 21.4zm-780 239.9c-11-0.2-21.5 8.8-21.6 21.1 0 11.8 9.4 21.3 21.2 21.3 12.1 0 21.3-9.9 21.1-21 0.3-12.4-10.3-21.2-20.7-21.4zm-1359.8-242.1c1.8 9 8.5 15.8 17.4 17.6 8.9 1.8 18.2-1.8 23-9.2 5.3-8.1 5.3-16.4 0.5-24.8-1.3-2.2-3-3.1-5.5-3-9.1 0.1-18.2 0-27.2 0-0.9 0-1.8 0.1-3.1 0.2-4.6 5.8-6.6 12-5.1 19.2zm1894.8 135.3c-11.8 0-21.3 9.6-21.2 21.4 0.1 11.6 9.5 20.9 21.1 20.9 11.8 0.1 21.3-9.6 21.3-21.3-0.1-11.6-9.6-20.9-21.2-21zm-1091.8 127.8c-0.2 11.7 9 21 20.7 21.3 11.3 0.2 21.4-8.7 21.4-21.1-0.1-13.2-11.2-21.3-21-21.1-10.2-0.3-21 8.3-21.1 20.9zm-513.3-127.6c-11.7 0.1-20.8 9.1-21.1 20.6-0.2 11 8.5 21.2 20.8 21.3 11.7 0.1 21.2-9.1 21.2-20.8 0.4-10.7-8.6-21.1-20.9-21.1zm1101.8 127.6c-0.2 11.4 9 20.8 20.5 21.1 10.7 0.3 21.1-8.2 21.2-20.8 0-11.8-9.5-20.8-20.7-21-11.3-0.1-20.9 9.3-21 20.7zm-599.6 0.1c-0.2-12.2-10.1-20.8-21-20.7-12.1 0.2-20.7 10.1-20.7 21 0.1 11.5 9.5 20.7 21.1 20.6 11.4-0.1 20.8-9.5 20.6-20.9zm1369.4-235.3c-11.5 0.2-20.8 9.5-20.7 20.9 0.1 11.4 9.7 20.8 21 20.7 11.5-0.1 20.7-9.6 20.6-21-0.2-12.1-9.9-20.7-20.9-20.6zm-106.9 53.8c-11.4 0.1-20.6 9.5-20.6 21 0.1 11.5 9.4 20.7 20.9 20.6 11.5-0.1 20.8-9.4 20.7-20.9-0.1-11.4-9.6-20.7-21-20.7zm-320.5 107c-11.3 0-20.7 8.9-20.7 20.8 0 12.2 10 20.8 20.8 20.8 11.4 0 20.7-9.4 20.7-20.9-0.1-11.5-9.3-20.8-20.8-20.7zm-1284.2 0.1c-11.9 0-20.8 9.1-20.8 20.7-0.1 11.4 9.5 20.8 20.9 20.6 11.1-0.1 20.4-9.5 20.3-20.7-0.2-11.6-9.1-20.5-20.4-20.6zm-407.2-139.9c0.1-12.1-9.2-20.5-20.2-20.7-11.2-0.3-20.5 8.3-20.9 20-0.3 11.6 9 20.7 19.9 20.9 10.7 0.4 21-7.6 21.2-20.2zm86.6 33.1c-11.4-0.2-20.8 9.2-20.8 20.6 0.1 11.3 9.3 20.5 20.5 20.5 11.3 0 20.5-9.1 20.5-20.4 0.1-11.3-8.9-20.5-20.2-20.7zm1316.7 181.3c0 11.2 9.2 20.5 20.5 20.5 11.1 0 20.2-9 20.4-20.1 0.2-11.2-9-20.7-20.2-20.8-11.2-0.1-20.6 9.1-20.7 20.4zm-708.3 0.4c0.2-11.3-8.9-20.6-20.2-20.7-11.1-0.1-20.4 8.9-20.5 20-0.1 11.3 8.4 20.4 20.2 20.7 11.1 0.1 20.3-8.9 20.5-20zm1492.6-282.9c-9.3-0.1-18.7-0.1-28.1-0.2-1.5 0-2.5 0.7-3.4 1.9-4.8 6.4-5.9 13.4-3.1 20.9 3.7 9.7 12.6 13.8 19.7 13.6 9.1-0.2 15.7-4.4 19.7-12.7 3.3-6.7 2.3-17.5-4.4-23.4-0.1 0-0.2-0.1-0.4-0.1zm-282.2 155.5c-11.5-0.1-20.3 9-20.4 19.9-0.1 11.5 9.2 20.5 20.3 20.5 11.4-0.1 20.4-9.5 20.1-20.2 0.3-10.5-8.4-20.1-20-20.2zm-1985.9-120.4c8.5 2.6 17.9-0.6 23.3-8 5.3-7.4 5.2-17.3-0.1-24.6-1.4-1.9-2.9-2.8-5.3-2.7-8 0.1-16 0-24 0-0.9 0-1.8 0.1-2.7 0.2-10.4 10.1-7.6 30 8.8 35.1zm1844.9 193.6c0-11-8.7-19.9-19.8-20-11.3-0.1-20.2 8.8-20.1 20.1 0 11 9 19.9 19.9 19.9 11 0 19.9-9 20-20zm-286.5 34c-11-0.1-20.1 8.8-20.2 19.7 0 10.9 8.8 20 19.8 20 11.1 0.1 20-8.7 20.1-19.7 0-11-8.7-20-19.7-20zm-1264.8-86.8c0.1-11.3-8.7-20.2-20-20.1-11.1 0-19.7 8.7-19.7 19.9 0 11.1 8.6 19.8 19.7 19.9 11.1 0 20-8.7 20-19.7zm140.7 32.9c-10.8 0.2-19.5 8.9-19.6 19.7 0 10.5 8.1 20 19.8 20 11.7 0 20-9.7 19.7-20 0-11-8.8-19.8-19.9-19.7zm287.7 73.7c0-10.8-8.7-19.6-19.5-19.8-10.9-0.2-20 8.7-20.1 19.7-0.1 11 8.7 19.9 19.7 20 11 0 19.9-8.9 19.9-19.9zm1404.9-161.3c-0.3 11.4 8.3 19.8 19 20.2 9.1 0.4 19.9-6.1 20.2-19.4 0.3-11.5-8.8-19.5-19.2-20-10.1 0-19.7 7.6-20 19.2zm145.9-53.2c0.1-10.8-8.7-19.7-19.5-19.6-9.8 0.1-19.2 7.2-19.3 19.3-0.1 12.8 10.5 19.8 19.4 19.6 10.6 0 19.3-8.6 19.4-19.3zm-681 214.5c-0.1 8.8 6.7 19.3 19.3 19.3 11.6 0.1 19.3-9 19.4-19.2 0.1-10.7-8.6-19.4-19.3-19.4-10.7 0-19.3 8.7-19.4 19.3zm-924.3 0c0-10.6-8.4-18.9-18.9-19.2-10.3-0.3-19.5 8.5-19.6 19-0.1 10.1 8.1 19.5 19.2 19.4 10.8 0.1 19.3-8.4 19.3-19.2zm-535.3-161c-0.3-11.7-10.1-19.2-19.6-19.1-9.9 0.2-18.9 8.6-18.9 19.4 0 10.1 8.2 19.3 19.3 19.2 10.8-0.1 19.3-8.8 19.2-19.5zm2175.3-121.7c-3.8 0-7.6 0-11.3 0-1.5 0-2.7 0.4-3.6 1.6-4.7 5.4-6.5 11.5-4.6 18.5 2.6 9.8 10.9 15.6 21.1 14.7 8-0.6 13.7-4.8 16.7-12.2 3-7.4 1.7-14.5-3.5-20.7-1.2-1.4-2.6-2-4.4-1.9-3.4 0.1-6.9 0-10.4 0q0 0 0 0zm-268 156.8c-10.4-0.1-19 8.5-19.1 18.9 0 10.6 8.7 19.4 19.3 19.3 11.4-0.1 19.1-9.3 19-19 0.3-10-7.8-19.2-19.2-19.2zm-179.7 71.7c-0.2 10.7 8.4 19.4 19.1 19.4 10.5 0 18.8-8.4 19-19 0.1-10.6-8.8-19.2-18.9-19.1-9.5-0.4-19.1 7.6-19.2 18.7zm-1853.6-141.3c10.4-0.1 19-8.8 18.9-19.3-0.1-10.5-8.6-18.9-19.2-18.9-10.6 0.1-18.9 8.5-18.8 19.2 0 10.6 8.6 19 19.1 19zm-35.3-63.8c3.5-7.6 2.3-14.7-2.9-21.2-1.2-1.5-2.6-2.3-4.7-2.2-6.6 0.1-13.3 0.2-19.9-0.1-2.6 0-4.3 1-5.7 2.9-4.8 6.4-5.8 13.3-2.5 20.5 3.4 7.4 9.5 11 17.6 11.5 8.3-0.3 14.6-3.8 18.1-11.4zm390.8 205.3c-0.1 10.4 8.5 19.1 19 19.1 10.3-0.1 18.7-8.5 18.8-18.8 0.1-10.6-8.4-19.1-19-19.1-10.3 0.1-18.7 8.5-18.8 18.8zm-141.5-71.7c-10.3-0.3-19 8-19.3 18.3-0.3 9.6 7 19.1 18.5 19.4 10.1 0.3 18.9-7.4 19.3-18.2 0.3-10.3-7.5-19.1-18.5-19.5zm1463.6 125.7c0.1-10-8.4-18.5-18.4-18.7-9.1-0.1-18.9 6.8-19 18.6-0.1 10.8 8.2 18.6 18.6 18.9 10.4-0.1 18.6-8.1 18.8-18.8zm-1089.6 18.7c10.3 0.1 18.8-8.3 18.7-18.7 0-10.3-8.5-18.7-18.8-18.6-10.1 0.2-18.4 8.6-18.3 18.7 0 10.1 8.2 18.4 18.4 18.6zm1623.5-179.6c0-10-8-18.1-18.1-18.1-10.2-0.1-18.5 8.1-18.4 18.4 0 10.1 8.1 18 18.2 18.1 10.3 0 18.4-8 18.3-18.4zm-1106.1 213.8c0 10.1 8.1 18.2 18.2 18.2 9.9 0 17.8-7.9 18-17.8 0.2-10.1-8.2-18.5-17.9-18.3-10.3-0.3-18.4 8.5-18.3 17.9zm-35.7 18.2c9.8 0 18-8.1 18.1-17.9 0.1-9.4-7.7-18.3-18.1-18.2-10.2 0.1-18.1 7.8-18.1 18-0.3 9.1 7.1 18.1 18.1 18.1zm838.8-124.8c0.1 9.9 8 17.9 17.8 18 10.1 0.1 18.3-8 18.3-18.1 0-10.1-8-18.2-18.1-18.2-10.1 0.1-18 8.1-18 18.3zm-178.6 54c0.2-9.6-7.7-18.2-18-18.3-9.9-0.1-18.2 8.4-18.2 18.2 0.1 9.8 8.2 17.8 18.1 17.8 9.9 0.1 17.9-7.8 18.1-17.7zm641.3-260.9c2.8-7.2 1-15.3-4.4-20.4-1.2-1.1-2.4-1.7-4-1.7-5.8 0-11.5 0.1-17.2 0-1.9 0-3.2 0.6-4.4 1.9-5.4 5.1-7.1 13.3-4.1 20.4 2.8 6.8 9.8 11.4 17.1 11.3 7.4-0.1 14.3-4.7 17-11.5zm-1158.8 313.3c-0.1 10.1 7.8 18.2 17.9 18.3 10 0.1 18.2-8.1 18.1-18.1-0.1-9.9-8-17.8-17.9-17.8-10 0-17.9 7.7-18.1 17.6zm-53 0.6c0.1 9.9 8 17.7 17.9 17.8 10.1 0 18.2-8 18.2-18.1 0-10.2-8.4-18.3-18.2-18-10.2 0.1-18 8-17.9 18.3zm-1087.7-213.9c0.2-9.9-8.2-18.2-18.2-18.1-9.7 0.2-17.8 8.3-17.7 18.1 0 9.8 8.2 17.8 18 17.8 9.7-0.1 17.7-7.7 17.9-17.8zm2247.4-53.8c0.1-10-7.8-17.9-17.6-18.1-10-0.3-18.4 7.8-18.4 17.8 0 9.8 8 17.8 17.8 17.9 9.8 0.1 18-7.6 18.2-17.6zm-1320.4 267.3c-0.1 10.1 8 18.2 18.1 18.1 9.9-0.1 17.7-8 17.8-17.9 0-10.2-7.9-18.1-18.1-18-9.9 0.1-17.8 7.9-17.8 17.8zm285.8-17.7c-10-0.1-17.9 7.7-18.1 17.7-0.1 9.7 7.6 17.9 17.8 18 10.2 0 17.9-8 18-17.7 0.1-10-7.8-18-17.7-18zm-962.5-106.9c-8.5-0.3-17.7 5.6-18.4 17-0.6 10.2 7.4 18.2 17.1 18.7 9.6 0.5 18.2-7.4 18.6-17.2 0.3-8.5-5.9-18-17.3-18.5zm640.4 106.9c-8 0.1-17.4 6.2-17.5 17.8-0.1 10.4 8.1 17.9 17.9 17.8 11.1-0.1 17.8-9 17.8-18-0.1-9.8-8.3-17.7-18.2-17.6zm1141.8-141.7c0.2-10-7.5-18-17.5-18.2-10-0.1-18 7.6-18.2 17.5-0.2 10 7.6 18 17.5 18.2 10.1 0.1 18.1-7.6 18.2-17.5zm-1551.2 106.6c0-9.9-7.7-17.9-17.9-17.9-10.5 0.1-17.6 8.6-17.7 17.6-0.1 9.9 7.8 18 17.7 18.1 9.8 0.1 17.9-8 17.9-17.8zm-647.8-281.1c-1.1-1-2.4-1.7-4-1.7q-8.2 0.1-16.3 0c-1.7 0-2.9 0.6-4.1 1.7-3.2 2.8-5.1 6.4-5.8 10.5-1.7 10.2 5.9 19.9 16.1 20.9 11.7 1 20.3-8.4 20-16.8 0-6.6-2.1-10.9-5.9-14.6zm1432.3 316.4c-8.4-0.1-17.5 5.8-17.8 17.4-0.2 9.7 6.8 17.4 17.4 17.8 9.6 0.3 17.7-7.7 17.8-17.4 0.1-9.6-7.7-17.7-17.4-17.8zm-1177.1-159.8c-9.7 0.1-17.5 8.1-17.4 17.8 0.2 9.7 8.1 17.5 17.8 17.4 9.8-0.2 17.5-8.1 17.4-17.8-0.1-9.8-8.1-17.6-17.8-17.4zm-195.9-90.2c0.1-9.6-7.8-17.7-17.5-17.7-10 0.1-17.6 7.5-17.7 17.6 0 10.9 8.8 17.7 17.5 17.6 9.7 0.1 17.7-7.8 17.7-17.5zm945.3 285c11.6-0.1 17.4-9.4 17.4-17.2 0.1-9.7-7.6-17.6-17.3-17.7-9.7-0.1-17.6 7.8-17.6 17.5 0 9.3 7 17.5 17.5 17.4zm481.4-34.6c-9.7 0-17.3 7.6-17.3 17.2 0 9.7 7.6 17.2 17.3 17.2 9.7 0 17.3-7.6 17.3-17.2 0-9.6-7.7-17.2-17.3-17.2zm391.7-35.9c-0.1-9.5-7.7-17-17.1-17-9.5 0-17 7.4-17.1 16.9-0.1 9.8 7.4 17.4 17 17.4 9.7 0 17.3-7.7 17.2-17.3zm-944.2 53c0 9.7 7.5 17.2 17.3 17.2 9.6-0.1 16.8-7.4 17-17 0.2-9.1-7.5-17.4-17.3-17.2-9.4 0-16.9 7.5-17 17zm1140.9-89.7c10.1-0.1 17-8.4 17-17.2-0.1-9.3-7.9-16.9-17.2-16.9-9.4 0.1-17 7.8-16.9 17.2 0 8.8 7.2 16.9 17.1 16.9zm-1515.4 37c0.1 9.3 7.8 16.9 17.2 16.9 9.3-0.1 17-7.8 16.9-17.1 0-9.3-7.7-16.9-17.1-16.9-9.4 0.1-17 7.7-17 17.1zm996.8 53.2c0.2-9.6-7.1-17.2-16.7-17.2-9.4-0.1-17 7.1-17 16.9 0.1 10 8 16.7 16.7 16.7 9.3 0.1 16.9-7.2 17-16.4zm-641.3-0.4c-0.2-9.8-7.7-16.7-16.8-16.7-9.3-0.1-16.8 7-16.9 17 0 9.1 7.9 16.6 17 16.5 9.3-0.1 16.8-7.7 16.7-16.8zm1427.6-230.6c-7.9 0-16.7 5.9-16.9 16.7-0.1 9.9 7.6 16.9 16.9 17 9.2 0 16.6-7.6 16.6-16.9 0-9.2-7.5-16.7-16.6-16.8zm-1980 107.1c-9.3 0-16.6 7.8-16.4 17 0.2 9 7.6 16.4 16.6 16.3 9-0.1 16.5-6.8 16.7-16.8-0.4-9.9-7.8-16.6-16.9-16.5zm1873-52.9c-9.4 0.1-16.6 7.7-16.6 16.8 0.1 8.7 7.1 16.2 16.6 16.3 9.1 0.2 16.7-7.5 16.6-16.7-0.2-9.1-7.5-16.4-16.6-16.4zm263-159.3c-2.3-0.2-4.2 0.6-5.9 2-5.4 4.7-7.4 10.6-5.6 17.5 1.8 7 8 11.9 15.2 12.3 7.3 0.5 13.9-3.9 16.7-10.9 2.6-6.5 0.4-14.3-5.1-18.8-1.7-1.4-3.5-2.3-5.8-2.1-1.7 0.1-3.3 0-5 0-1.5 0-3 0.1-4.5 0zm-2387 122.1c0.1-9-7.3-16.5-16.3-16.6-9.1-0.1-16.4 7.1-16.5 16.3-0.1 9.2 7 16.5 16.2 16.6 9.1 0.1 16.5-7.1 16.6-16.3zm1465.4 213.6c0 9.2 7.2 16.4 16.3 16.4 9.1 0.1 16.5-7.2 16.5-16.3 0-9.2-7.3-16.5-16.4-16.5-9.2 0-16.4 7.2-16.4 16.4zm872.3-284c-9.1 0-16.3 7.4-16.3 16.5 0.1 8.8 7.4 16.1 16.2 16.2 9.1 0.1 16.4-7.2 16.5-16.3 0-9.2-7.2-16.4-16.4-16.4zm-1621.3 284.2c0.1 9.1 7.1 16 16.2 16.1 9.3 0 16.5-7.3 16.3-16.5-0.1-9.1-7.2-16-16.2-16-9.4 0-16.4 7.1-16.3 16.4zm1102.2-53c0.1-8.9-7-16.2-15.9-16.4-9.2-0.1-16.5 7.2-16.5 16.4 0.1 9 7.1 16 16.2 16 9 0 16.2-7 16.2-16zm-1728-123.2c-9.2-0.1-16.4 7.2-16.4 16.4 0.1 8.9 7.3 16 16.3 15.9 9 0 16.1-7.1 16.1-16.1 0-9-7-16.1-16-16.2zm-270.9-159.7c-3.5-0.5-6.1 1.2-8.4 3.4-4.8 4.7-6.3 12.5-3.4 18.4 3 6.3 8.1 9.6 15.1 9.5 6.9-0.1 12-3.4 14.6-9.6 2.7-6.3 1.8-12.5-2.9-17.7-2.4-2.7-5.3-4.5-9.1-4-0.9 0.1-1.8 0-2.7 0-1.1 0-2.1 0.1-3.2 0zm592.7 266.8c-8.9-0.3-16.3 6.8-16.3 15.8-0.1 9 7 16.2 16 16.2 8.7 0 15.8-7.1 15.9-15.9 0.1-8.7-6.8-15.9-15.6-16.1zm1139.3 69c0-8.8-7.4-16.1-16.2-16-8.7 0.1-15.8 7.3-15.7 16 0 8.7 7.2 15.8 15.9 15.8 8.7 0 15.9-7.1 16-15.8zm-1691-267.9c0 9.2 7.3 16.1 16.2 16.1 8.7-0.1 15.9-7.5 15.7-16.1-0.2-9.1-7.3-15.6-16-15.8-9.3 0.3-15.8 7.4-15.9 15.8zm818.8 283.6c8.7 0.1 15.9-6.9 16-15.7 0.1-8.5-6.7-15.6-15.3-15.9-8.7-0.3-16.1 6.7-16.3 15.5-0.2 8.7 6.9 16 15.6 16.1zm1353.4-122.9c-0.2-10.2-8.3-15.8-16.1-15.6-8.9 0.3-15.4 7-15.4 15.8 0 9.4 7.6 16 15.9 15.8 7.9 0 15.8-6.2 15.6-16zm-1851.1 0.3c0.1 8.4 6.9 15.3 15.3 15.4 8.6 0.1 15.6-6.7 15.6-15.3 0.1-8.7-6.7-15.6-15.4-15.6-8.6 0-15.5 6.9-15.5 15.5zm1674.9 38.6c-8.4-0.2-15.5 6.6-15.6 15-0.1 8.3 6.5 15.2 14.7 15.5 8.5 0.2 15.6-6.4 15.8-14.8 0.3-7.6-5.7-15.3-14.9-15.7zm-252.9 68.2c0-8.6-6.7-15.2-15.3-15.1-8.3 0-14.8 6.5-14.9 14.9-0.1 8.6 6.5 15.4 15 15.4 8.6 0 15.2-6.7 15.2-15.2zm665.8-214c-0.1 8.4 6.9 15.4 15.2 15.4 9-0.1 15.3-7.5 15.2-15.3-0.2-8.3-6.9-14.9-15.2-14.9-8.2 0-15 6.7-15.2 14.8zm-1628.7 214.1c0.1-8.4-6.9-15.2-15.3-15.2-6.7 0-14.9 5.3-15 15.1 0 9.3 7.7 15.2 15.3 15.1 8.2-0.1 15-6.9 15-15zm1551.2-159.6c0.2-8.5-6.6-15.4-15.1-15.4-8.4 0-15 6.6-15.1 15 0 8.4 6.5 15 14.9 15.1 8.4 0.1 15.1-6.4 15.3-14.7zm252.7-176.1c-6.8-0.1-15 4.8-15.1 14.9-0.2 8.3 6.2 14.9 14.8 15.1 8.2 0.2 15.1-6.7 15.2-14.9 0.1-8.2-6.7-15-14.9-15.1zm-2086.5 267.7c-9.3-0.1-15.1 7.5-15.2 14.8 0 8.2 6.7 15.2 14.8 15.2 7.3 0 14.7-5.2 15.3-14.8-0.2-8.6-6.5-15.1-14.9-15.2zm-320.8-77.2c8.1 0 14.7-6.7 14.7-14.8 0-8.1-6.7-14.7-14.8-14.7-8.1 0.1-14.7 6.7-14.7 14.8-0.2 6.8 5.4 14.6 14.8 14.7zm-106.9-83.4c-7.4 0-14.7 5.6-14.7 14.8 0 8.4 6.6 14.7 14.7 14.7 8.2-0.1 14.8-6.6 14.8-14.8-0.1-8.1-6.7-14.6-14.8-14.7zm2446.6-39.2c0 8.2 6.5 14.7 14.7 14.5 8-0.2 14.3-6.7 14.2-14.6-0.1-8.1-6.4-14.3-14.5-14.3-8.1 0-14.3 6.3-14.4 14.4zm-720.2 267.8c0.1-8-6.3-14.4-14.2-14.5-8.1-0.2-14.9 6.5-14.7 14.6 0.2 8 6.4 14.2 14.5 14.2 8 0 14.4-6.3 14.4-14.3zm-1887.3-335.2c-8 0.1-14.3 6.4-14.4 14.5 0 8.2 6.6 14.5 14.8 14.4 8.1-0.1 14.5-7 14.1-14.6 0.2-7.4-6.1-14.3-14.5-14.3zm2300.5 213.9c-8.1 0-14.3 6.2-14.4 14.4-0.1 8.9 7.4 14.2 14 14.3 7.9 0.2 14.5-6.2 14.6-14.2 0.1-8.1-6.2-14.5-14.2-14.5zm-1512.5 121.2c0 7.9 6 14.1 13.9 14.2 7.9 0.1 14.2-5.9 14.5-13.7 0.2-8-6-14.6-14-14.7-8-0.1-14.4 6.1-14.4 14.2zm-427.4-106.7c0 7.4 6.4 13.9 13.9 13.8 8.9-0.1 14-7.1 14.1-13.7 0.2-7.7-6.2-14.3-13.9-14.3-7.7-0.1-14.2 6.5-14.1 14.2zm1766 53.5c-0.3 6.7 4.5 14.1 13.8 14.3 8.7 0.1 14.1-6.8 14.1-14.2 0-7.6-6.2-13.7-13.9-13.8-6.7-0.1-13.8 4.9-14 13.7zm-2059.6-214.1c0.1-8.1-6-14.2-13.8-14.4-7.8-0.2-14.2 6.4-14.2 14.1 0.1 7.6 6.3 13.9 13.9 13.9 7.6 0.1 14.1-6.1 14.1-13.6zm468.8 200.7c-7.6-0.3-14 5.8-14.1 13.5 0 7.6 5.7 13.6 13.3 13.9 7.7 0.2 14-5.8 14.2-13.5-0.2-8.3-6.3-13.7-13.4-13.9zm1376.5 66.3c-0.2 7.6 5.6 13.6 13.1 13.9 7.8 0.2 14-5.8 14-13.5 0-7.6-5.8-13.5-13.4-13.6-7.5-0.1-13.6 5.7-13.7 13.2zm669.1-213.5c0-7.3-6-13.3-13.3-13.3-7.4 0-13.5 6.2-13.3 13.7 0.1 7.3 6.2 13.2 13.5 13.1 7.2-0.1 13.1-6.2 13.1-13.5zm-1818.8 214c0-7.5-5.9-13.5-13.5-13.4-7.4 0-13.2 5.9-13.2 13.3 0 7.3 5.9 13.2 13.3 13.2 7.4 0 13.3-5.8 13.4-13.1zm1698.7-173.3c-7.5-0.1-13.5 5.9-13.4 13.4 0.1 7.4 5.9 13.2 13.3 13.2 7.4 0 13.2-5.9 13.2-13.3 0.1-7.4-5.7-13.3-13.1-13.3zm-1177.6 213.8c-7.3 0-13.4 6-13.3 13.3 0 7.1 5.8 13 12.9 13.1 7.3 0.2 13.4-5.6 13.4-13 0.1-7.4-5.7-13.4-13-13.4zm120.9 13c-0.1-7.1-5.9-12.9-13.1-13-7.3 0-13.2 5.9-13.2 13.2 0 7.4 5.9 13.3 13.2 13.2 7.3 0 13.2-6 13.1-13.4zm-67.1-13c-7.1 0-13 5.7-13.1 12.9-0.1 7.5 5.6 13.5 13 13.5 7.2 0.1 13.4-5.9 13.4-13.1 0-7.2-6-13.3-13.3-13.3zm107.1 0.2c-7.6-0.1-13.4 5.9-13.3 13.1 0.1 8.7 7.3 13 13.1 13 7.1 0 13-5.8 13.1-12.9-0.1-6.6-4.9-13.1-12.9-13.2zm-227 12.6c-0.3 7 5.3 13.2 12.4 13.5 7.4 0.3 13.6-5.5 13.7-12.8 0.2-7.2-5.5-13.1-12.7-13.3-7.1-0.2-13.2 5.4-13.4 12.6zm-1003.6-200.4c7.1 0 12.9-6.1 12.8-13.1-0.1-7.1-6.2-13.1-13.2-12.8-7.5 0.4-12.6 5.9-12.7 13.2 0.3 7.7 6.1 12.7 13.1 12.7zm1271.4 200.5c-0.2 8.4 6.5 13 12.2 13.3 7.2 0.3 13.4-5.2 13.7-12.4 0.3-7.3-5.4-13.3-12.5-13.5-7.2-0.3-13.2 5.1-13.4 12.6zm1230.7-374.3c-0.1 7.1 5.8 13 12.9 12.9 7.1-0.1 12.8-6 12.6-13.1-0.2-7.1-5.8-12.6-12.8-12.5-7 0.1-12.7 5.7-12.7 12.7zm-1539.5 361.9c-6.9 0-12.6 5.7-12.7 12.6 0 6.9 5.6 12.8 12.5 12.9 7.1 0.2 13-5.5 13.1-12.6 0-7.2-5.7-13-12.9-12.9zm-1069-267.7c-6.9-0.4-13 5.1-13.4 12-0.4 7.2 5.2 13.3 12.3 13.6 7 0.2 12.9-5.3 13.2-12.3 0.3-7-5-12.9-12.1-13.3zm2233.9 119.8c0.1 6.9 5.7 12.5 12.7 12.6 7 0.1 12.7-5.5 12.9-12.5 0.1-7.1-5.6-13-12.7-13.1-7.1 0-12.9 5.8-12.9 13zm-135.4 53.7c0-6.9-5.5-12.4-12.3-12.6-7-0.1-12.8 5.5-12.9 12.5-0.1 7.1 5.4 12.7 12.5 12.8 6.3 0.3 12.7-4.9 12.7-12.7zm-226.4 40.4c-7.2 0.1-12.6 5.7-12.5 12.8 0 6.9 5.5 12.4 12.4 12.4 7.2 0.1 12.7-5.4 12.7-12.6 0-7.2-5.5-12.6-12.6-12.6zm-868.4 66.2c-0.2 7.1 5.5 12.9 12.5 12.9 6.8 0 12.3-5.6 12.3-12.5 0.1-7-5.3-12.5-12.2-12.6-6.9 0-12.5 5.4-12.6 12.2zm440.1-12.2c-7.1 0-12.6 5.6-12.6 12.7 0.1 6.8 5.6 12.3 12.4 12.4 5.8 0.1 12.8-4.9 12.5-12.7-0.1-6.9-5.5-12.3-12.3-12.4zm1135.9-308.6c0.3-6.8-5.1-12.6-11.9-12.8-6.8-0.3-12.5 5-12.8 11.8-0.3 6.9 5 12.6 11.9 12.8 7 0.2 12.6-5 12.8-11.8zm-2205.7 201.9c-6.8 0-12.4 5.4-12.4 12.3 0 6.9 5.4 12.4 12.2 12.5 6.9 0 12.4-5.5 12.5-12.3 0-6.9-5.4-12.4-12.3-12.5zm-173.1-41.6c0 7 5.3 12.3 12.2 12.3 7 0 12.4-5.4 12.4-12.3 0-6.8-5.6-12.4-12.4-12.4-6.8 0-12.2 5.5-12.2 12.4zm386.9 94.6c-6.9-0.1-12.4 5.3-12.5 12.2 0 6.8 5.4 12.4 12.2 12.5 7 0 12.4-5.3 12.4-12.3 0.1-6.9-5.2-12.4-12.1-12.4zm-748.7-320.5c-6.8-0.3-12.6 5-12.8 11.8-0.2 6.8 5.4 12.6 12.1 12.6 6.7 0.1 12.1-5.2 12.3-11.9 0.2-6.7-4.9-12.3-11.6-12.5zm1646.2 387.1c0.1 6.5 6 12.1 12.5 11.9 7.3-0.3 12.2-6.3 12-12.7-0.2-6.6-5.9-12-12.4-11.8-7.4 0.2-12.2 6.4-12.1 12.6zm-523.2 11.7c6.5 0.1 12.1-5.3 12.3-11.9 0.1-6.5-5.4-12.1-12-12.3-6.6-0.1-12.1 5.3-12.2 11.9-0.1 6.6 5.3 12.2 11.9 12.3zm-1057.7-333.6c0-6.8-5.4-12.1-12.2-12-6.5 0.2-11.7 5.6-11.6 12.1 0.1 6.5 5.4 11.8 12 11.7 6.5 0 11.8-5.3 11.8-11.8zm1646 309.8c-6.5 0-11.8 5.5-11.6 12 0.1 6.3 5.4 11.4 11.7 11.5 6.6 0 11.8-5.3 11.8-11.8 0-6.6-5.3-11.8-11.9-11.7zm386.2-42.2c0-6.5-5-11.5-11.4-11.6-6.6 0-11.8 5.2-11.7 11.8 0.1 6.4 5.2 11.4 11.7 11.3 6.6 0 11.4-4.9 11.4-11.5zm-1015.9 53.7c-0.1-6.2-5.2-11.2-11.3-11.3-6.3-0.1-11.6 5.3-11.6 11.5 0 6.4 5.2 11.4 11.6 11.4 6.5-0.1 11.4-5.2 11.3-11.6zm695 0.4c0.2-6.3-4.8-11.2-10.9-11.5-6.2-0.4-11.7 5.1-11.7 11.3 0 6.1 5 11.2 11.2 11.3 6.4 0 11.3-4.8 11.4-11.1zm792-225.3c-6.3-0.1-11.6 5.2-11.5 11.5 0 6.1 5.2 11.2 11.3 11.2 6.2 0 11.2-5 11.3-11.2 0-6.2-4.9-11.3-11.1-11.5zm-1884.2 171.4c0.3 7 5.7 11.1 11.5 11 6-0.2 10.9-5.2 10.9-11.2-0.1-6.7-5.2-11-11.3-11.2-6 0-11.3 5.4-11.1 11.4zm1616.5-41.9c6.7-0.2 11.1-5.6 11-11.5 0-6-5.1-10.8-11.1-10.9-6.2 0-11.3 5-11.2 11.2 0 5.2 3.9 11.3 11.3 11.2zm-2086.5-129.2c-5.9-0.1-11 4.7-11.2 10.7-0.2 6.2 4.9 11.4 11 11.4 5.9 0 11-5 11-10.9 0.1-5.9-4.8-11-10.8-11.2zm2235.2 64.2c-0.1 5.9 5.2 11.1 11.1 10.8 6.4-0.3 10.9-4.9 10.8-11.1 0-6.1-4.9-10.9-11-10.8-5.9 0-10.8 4.5-10.9 11.1zm236.7-107.1c0-5.9-5-10.9-10.9-10.9-6.2-0.1-11.3 5.1-11.1 11.2 0.1 6 5.1 10.8 11.1 10.8 6-0.1 10.9-5.1 10.9-11.1zm-2580-10.8c-6.1 0-10.8 5-10.7 11.1 0.1 6.1 5.1 10.8 11.2 10.6 5.9-0.2 10.4-5.1 10.3-11.1-0.1-5.9-4.9-10.6-10.8-10.6zm910.1 267.7c-6.1 0-11 4.8-10.9 10.9 0 6.1 5 10.9 11.1 10.7 5.9-0.2 10.5-4.9 10.4-10.9 0-5.9-4.7-10.6-10.6-10.7zm802.9 0c-6 0-10.9 5-10.8 11 0.1 5.9 4.9 10.6 10.8 10.6 6 0 10.9-4.9 10.8-11-0.1-5.8-4.9-10.5-10.8-10.6zm-1327.8-96c0-6-4.6-10.6-10.6-10.6-6 0-10.6 4.6-10.6 10.6 0 5.9 4.7 10.6 10.6 10.6 5.9 0 10.6-4.7 10.6-10.6zm1658.9 53c0.1-5.8-4.6-10.6-10.5-10.5-6 0-10.5 4.7-10.3 10.7 0.1 5.9 4.6 10.2 10.5 10.2 5.7-0.1 10.3-4.7 10.3-10.4zm-1839.7-106.9c0 5.9 4.4 10.3 10.3 10.3 6.1 0 10.7-4.7 10.5-10.7-0.1-5.7-4.9-10.2-10.6-10.2-5.7 0.1-10.2 4.7-10.2 10.6zm2524.7-224c-5.5-0.2-10.2 4.2-10.4 9.8-0.2 5.7 4.4 10.5 10.1 10.6 5.4 0.1 10.1-4.6 10.2-10 0.1-5.5-4.4-10.2-9.9-10.4zm-1872.5 374.8c-5.3 0.2-9.7 4.7-9.6 10.1 0.1 5.3 4.6 9.8 9.9 9.8 5.6 0 10.1-4.5 10-10.1-0.1-5.6-4.6-10-10.3-9.8zm1390.8-106.7c-5.5 0-9.7 4.3-9.8 9.8-0.1 4.8 4.3 9.8 9.8 9.7 5.5-0.1 9.7-4.2 9.7-9.7 0-5.5-4.2-9.8-9.7-9.8zm428.5-214.7c-5.5 0-9.8 4.3-9.8 9.7 0 5.5 4.2 9.7 9.8 9.7 5.5 0 9.7-4.1 9.7-9.7 0-5.5-4.2-9.7-9.7-9.7zm-2130.8 277.5c0-5.4-4.4-9.8-9.9-9.7-5.3 0.1-9.3 4.3-9.3 9.7 0 5.4 4.2 9.5 9.5 9.5 5.3 0 9.6-4.3 9.7-9.5zm1230.4 49.8q-1.5-3.5-4.9-5.2c-4.3-2.1-9.7-0.9-12.7 2.8-3.1 3.9-3 8.6 0.3 12.7 5.7-1.3 11.6-1 17.4-2.9 1-3.8 0.9-4.9-0.1-7.4zm632.7-165.8c-5.1 0-9.2 4.3-9 9.4 0.1 4.9 4.3 8.8 9.2 8.7 4.9-0.2 8.9-4.3 8.8-9.2-0.1-4.9-4.1-8.9-9-8.9zm-1605 160.8c-5-0.1-9.2 4.2-9.1 9.2 0.1 4.9 4.2 8.9 9.1 8.8 4.9 0 8.9-4.1 8.9-8.9 0-4.9-4-9-8.9-9.1zm1720.9-204.7c0-5.2-4.1-9.2-9.3-9-5 0.2-8.9 4.2-8.7 9.2 0.1 5 4.1 8.8 9.1 8.8 5-0.1 8.8-4 8.9-9zm-2202.1 98.1c-5.1-0.1-9.1 3.6-9.2 8.6 0 4.8 3.7 8.8 8.5 9 5 0.2 9-3.7 9.1-8.7 0.1-4.9-3.5-8.7-8.4-8.9zm-152.8-45.2c0-4.6-3.7-8.3-8.3-8.3-4.8 0-8.8 4-8.6 8.6 0.2 4.5 4.2 8.2 8.7 8.1 4.6 0 8.3-3.8 8.2-8.4zm2453-115.2c-4.6-0.2-8.4 3.4-8.6 8-0.2 4.8 3.6 8.8 8.3 8.8 4.5 0 8.4-3.8 8.5-8.3 0.1-4.5-3.6-8.4-8.2-8.5zm-2565.6 69.7c1 0.8 2.3 0.5 3.3-0.4 2.8-2.6 3.9-5.7 2.9-9.4-1-3.6-3.4-6-7.1-6.7-3.6-0.6-6.6 0.5-8.8 3.3-1 1.3-1.5 2.9-2.4 4.7 4 3.6 8.2 5.8 12.1 8.5zm433.8 152.4c-0.1-4.3-3.3-7.8-7.6-7.9-4.5-0.2-8.2 3.2-8.3 7.7-0.1 4.5 3.3 8.1 7.8 8.1 4.5 0.1 8.1-3.4 8.1-7.9zm259 46c-4.5-0.1-8.2 3.4-8.2 7.9 0 4.6 3.7 8.1 8.2 8 4.4-0.2 7.7-3.6 7.7-8 0-4.3-3.4-7.7-7.7-7.9zm1333.4-44.5c3.8-0.8 7.4-2.3 11.3-2.6 0.9 0 1.8-0.9 2.6-1.4-2.5-5.8-6.8-8.2-11.8-6.7-2.4 0.6-4.3 2.1-5.6 4.3-1.2 1.9-1.8 4.1-1 6.3 2.8 0.6 2.7 0.5 4.5 0.1zm-1808.3-54.7c-0.2-3.7-3.2-6.5-6.8-6.5-3.9 0.1-6.8 3.1-6.7 7.1 0.2 3.6 3.2 6.5 6.8 6.4 3.8 0 6.8-3.2 6.7-7zm2508.7-274.2c-3.9-0.2-7 2.7-7.1 6.6-0.1 3.7 2.6 6.8 6.2 7 3.7 0.2 7.1-2.9 7.2-6.6 0.1-3.6-2.7-6.7-6.3-7zm-54.1 53.1c-3.9-0.2-7 2.8-7 6.6 0 3.8 3 6.8 6.9 6.7 3.7-0.1 6.5-2.9 6.5-6.6 0.1-3.7-2.7-6.6-6.4-6.7zm-2032.5 321.6c-3.9-0.2-7 2.6-7.1 6.4-0.1 3.8 2.6 6.7 6.3 6.9 3.8 0.2 7-2.6 7.1-6.4 0.1-3.7-2.6-6.7-6.3-6.9zm-268-53.5c-3.4-0.1-6.3 2.8-6.3 6.2 0 3.2 2.6 6 5.9 6.2 3.4 0.2 6.4-2.5 6.5-6 0.1-3.4-2.6-6.3-6.1-6.4zm755.3 114.7q0.3-0.7 0.3-1.4c0.1-3.7-3.2-6.9-7-6.7-3.5 0.2-6.4 3.6-6.1 7.1 0.2 2 1.1 3 3.1 3 2.8 0.1 5.7 0.1 8.8 0.1 0.5-1.1 0.8-1.6 0.9-2.1zm-60 3.2c0.5 0 1 0 1.4 0 2.4-0.1 3.6-1.2 4.1-3.4 0.6-2.5-0.2-4.5-2.1-6.1-1.6-1.3-4.5-1.6-6.4-0.5-2 1.1-3 2.9-3 5.2 0.1 3 1.6 5.2 4.7 4.8 0.4-0.1 0.9 0 1.3 0q0 0 0 0zm110.4-10.5c-2.5-1.5-5.9-1.4-8 0.6-0.9 0.9-1.7 2.1-2.2 3.3-0.5 1.4-0.5 3 0.9 4.5 3.8 0 7.8 0.5 11.7-0.3 0.9-4.1 0.1-6.4-2.4-8.1zm-591.8-52.8c-3.1-0.2-5.8 2.4-5.8 5.5 0 3.1 2.3 5.5 5.4 5.6 3.2 0.1 5.8-2.4 5.8-5.6 0-3-2.4-5.4-5.4-5.5zm1170.3 3.7c0.8-0.1 1.5-0.3 2.2-0.4 0.9-0.2 1.7-0.5 2.6-0.6 3-0.3 6-0.6 8.9-1 1.2-0.1 1.6-1.5 0.8-2.4-5.1-6.2-14.6-3.6-16.5 2.9-0.1 0.3 0.1 0.8 0.2 1.3 0.6 0.1 1.2 0.2 1.8 0.2zm-521.5 54.9c0.5-2.1-0.6-3.7-2-5.2-1.3-1.4-3-1.9-4.9-1.8-1.9 0-3.6 0.6-4.9 2-1.4 1.5-2.1 3.2-1.7 5.3 4.6 0.7 10.4 0.6 13.5-0.3zm-220.7 3.6c0.9 0 1.8 0 2.7-0.1 1.8-0.1 2.8-0.9 3-2.6 0.3-2.5-0.6-4.5-2.7-5.8-1.7-1.1-3.6-1.2-5.5-0.1-2.1 1.2-3.1 3.1-2.9 5.6 0.2 2 1.1 2.8 3.2 3 0.7 0 1.5 0 2.2 0q0 0 0 0zm-51.2-7.9c-1.7-1.1-4.3-0.9-5.8 0.6-0.7 0.7-1.3 1.7-1.5 2.7-0.4 1.1-0.4 2.4 0.9 3.4 2.5 0.4 5.2 0.4 8.1-0.1 0.9-3.6 0.4-5.2-1.7-6.6zm1287-160.8c0.2 0 0.2-0.5 0.4-1-2.2-2.1-4.8-2.7-7.7-1.9-3.1 0.9-5.2 2.9-5.9 6.6 5-0.4 9.1-2.2 13.2-3.7zm-961.6 162.4c-1.4-3.3-3.7-4.9-6.7-4.7-1.7 0.1-3.2 0.7-4.5 1.9-0.8 0.7-1.8 1.5-1.4 2.9 4 0.8 9.5 0.7 12.6-0.1zm-755.2-54.4c-2.5-0.1-4.4 1.6-4.4 4 0 2.3 1.6 4 3.9 4.1 2.4 0.2 4.3-1.7 4.3-4 0.1-2.3-1.6-4-3.8-4.1zm1980.9-216.5c-1.8-0.4-3.6-0.2-5.2 0.8-2.6 1.6-3.6 4.1-2.4 6.9 3.8-1.4 7.2-3.4 10.7-5.3-0.5-1.8-1.8-2.2-3.1-2.4zm-2192 165.5c-1.1-3.2-4.4-4-6.9-1.7-0.7 0.7-0.7 1.9 0.3 2.2 2.1 0.7 3.9 2.3 6.6 1.5 0-0.6 0.2-1.4 0-2zm589.5 107.6c0.3-1.7-0.5-2.6-1.6-3.2-0.8-0.5-1.9-1-2.9-0.9-0.9 0-1.9 0.7-2.7 1.3-0.8 0.6-1.4 1.5-0.9 2.9 2.7 0.3 5.4 0.4 8.1-0.1zm418.5-4.4c1.5-0.4 2.6-0.7 3.7-0.8 1.3-0.2 2.7-0.1 5.1-0.1-4-2.6-6-2.3-8.8 0.9zm1071.7-214c1.1-0.2 2.2-0.3 2.7-1.6-2.2 0.2-2.2 0.2-2.7 1.6zm-1547.8 215.4c-0.1-0.1-0.3-0.2-0.4-0.2-0.2 0-0.4 0.2-0.6 0.2q0.2 0.2 0.4 0.3 0.3-0.2 0.6-0.3z"/>
			<path id="&lt;Path&gt;" class="s4" d="m3543.5 1884.1h-3150.5c-8.5 0-15.3-6.9-15.3-15.4v-0.9c0-8.5 6.8-15.3 15.3-15.3h3150.5c8.5 0 15.4 6.8 15.4 15.3v0.9c0 8.5-6.9 15.4-15.4 15.4z"/>
			<g id="&lt;Group&gt;">
				<path id="&lt;Path&gt;" class="s18" d="m2382.8 476h-341.4c-8.8 0-16-7.1-16-15.9v-122c0-8.7 7.2-15.9 16-15.9h341.4c8.8 0 15.9 7.2 15.9 15.9v122c0 8.8-7.1 15.9-15.9 15.9z"/>
				<path id="&lt;Path&gt;" class="s18" d="m2070.5 452.8v84.9l97.8-97.8c0 0-95.8 12.9-97.8 12.9z"/>
				<path id="&lt;Path&gt;" class="s19" d="m2365.9 460.8h-307.7c-7.4 0-13.4-6.1-13.4-13.5v-96.4c0-7.4 6-13.5 13.4-13.5h307.7c7.5 0 13.5 6.1 13.5 13.5v96.4c0 7.4-6 13.5-13.5 13.5z"/>
				<path id="&lt;Path&gt;" class="s18" d="m2227 367.9h-151.2c-3.6 0-6.6-2.9-6.6-6.6 0-3.6 3-6.6 6.6-6.6h151.2c3.7 0 6.6 3 6.6 6.6 0 3.7-2.9 6.6-6.6 6.6z"/>
				<path id="&lt;Path&gt;" class="s18" d="m2353.3 393.3h-280.4c-2 0-3.7-1.7-3.7-3.7v-0.1c0-2 1.7-3.7 3.7-3.7h280.4c2 0 3.7 1.7 3.7 3.7v0.1c0 2-1.7 3.7-3.7 3.7z"/>
				<path id="&lt;Path&gt;" class="s18" d="m2353.3 407.7h-280.4c-2 0-3.7-1.6-3.7-3.7 0-2.1 1.7-3.7 3.7-3.7h280.4c2 0 3.7 1.6 3.7 3.7 0 2.1-1.7 3.7-3.7 3.7z"/>
				<g id="&lt;Group&gt;">
					<path id="&lt;Path&gt;" class="s18" d="m2295.3 455.5h-9.2c-1.9 0-3.5-1.6-3.5-3.6v-7.5c0-2 1.6-3.5 3.5-3.5h9.2c2 0 3.5 1.5 3.5 3.5v7.5c0 2-1.5 3.6-3.5 3.6z"/>
					<path id="&lt;Path&gt;" class="s18" d="m2324.8 455.5h-9.2c-1.9 0-3.5-1.6-3.5-3.6v-7.5c0-2 1.6-3.5 3.5-3.5h9.2c1.9 0 3.5 1.5 3.5 3.5v7.5c0 2-1.6 3.6-3.5 3.6z"/>
					<path id="&lt;Path&gt;" class="s18" d="m2354.3 455.5h-9.2c-2 0-3.5-1.6-3.5-3.6v-7.5c0-2 1.5-3.5 3.5-3.5h9.2c1.9 0 3.5 1.5 3.5 3.5v7.5c0 2-1.6 3.6-3.5 3.6z"/>
				</g>
			</g>
			<g id="&lt;Group&gt;">
				<path id="&lt;Path&gt;" class="s12" d="m1596.4 1854.4h-577.7c0-20.5 16.6-37.1 37.1-37.1h540.6z"/>
				<path id="&lt;Path&gt;" class="s12" d="m1597 1854.4h-308.5l131-288.3c3.8-8.4 12.2-13.8 21.5-13.8h279.1c6.7 0 11.1 6.9 8.3 13z"/>
				<path id="&lt;Path&gt;" class="s7" d="m1720.1 1552.3h-254.8c-9.2 0-17.6 5.4-21.5 13.8l-131 288.3h284.2l131.4-289.1c2.8-6.1-1.6-13-8.3-13z"/>
				<path id="&lt;Path&gt;" class="s13" d="m1573.9 1712.8c-10.8 22.4-28.3 36.3-39.1 31.1-10.8-5.2-10.8-27.6 0-50 10.8-22.4 28.3-36.3 39.1-31.1 10.8 5.3 10.8 27.6 0 50z"/>
			</g>
			<g id="&lt;Group&gt;">
				<path id="&lt;Path&gt;" class="s6" d="m984.5 1132.2c0 0-26.2 133.8-55.2 157.3-28.9 23.4 66.7 136.5 99.8 107.5 33.1-29 2.3-92.4 2.3-92.4 0 0-17.9-11 12.4-81.4 30.4-70.3-51.3-122.8-51.3-122.8z"/>
				<path id="&lt;Path&gt;" class="s20" d="m992.5 1100.4l-8 31.8c0 0-3.6 18.6-9.7 43.1 11.3 52.9 32.5 87.3 51.4 109.1 0.6-12.2 4.8-31.3 17.6-61.2 30.4-70.3-51.3-122.8-51.3-122.8z"/>
				<path id="&lt;Path&gt;" class="s6" d="m1150.3 1170.1c-17.6 48.6-60.7 87.6-88 78.6-44.7-14.7-77.2-49.6-69.5-126.8 9-90.8 79-101.3 120-89.7 41.1 11.7 57 84.2 37.5 137.9z"/>
				<path id="&lt;Path&gt;" class="s16" d="m923.9 1289.2l-42.2 16.6 66.6 85.3-19 34c0 0 68.5 51.5 89.4 151.2 20.8 99.8 18.6 184.8 18.6 184.8 0 0 5.1-202.3-5-241-19.6-75-108.4-230.9-108.4-230.9z"/>
				<path id="&lt;Path&gt;" class="s16" d="m1031.9 1305.8c0 0 52.7 135.3 61.1 173.4 8.3 38.1 10 224.2 10 224.2 0 0 24.3-162.3 17.3-210.3-7-48-17-91.4-17-91.4l-32-23.6c0 0-6.1-64.3-9.5-65.2-3.4-0.8-29.9-7.1-29.9-7.1z"/>
				<path id="&lt;Path&gt;" class="s6" d="m1001.2 1801.9c102.5-31 90.1-46.6 127.3-29 37.3 17.6 84 29.6 62.2 35.2-21.9 5.7-54.9-12.4-54.9-12.4 0 0 5.2 28-13.5 36.3-18.6 8.2-101.4 11.3-147.5-1.6-46.1-12.9 26.4-28.5 26.4-28.5z"/>
				<path id="&lt;Path&gt;" class="s1" d="m998.3 1797.1h20.4l-10.2 58c0 0-40.2-6-37.2-10 3-4 27-48 27-48z"/>
				<path id="&lt;Path&gt;" class="s3" d="m804.3 1336.1c-40 70-52.7 108.2-85.3 239.2-32.6 131-45.7 190.6-9.7 207.8 29.8 14.3 246.7 79.3 273 71.3 12 0.7 30.4-61.3 30.4-61.3l-197.4-88c0 0 57.1-136.4 67-226 9.8-89.6-34-143-56-143-22 0-22 0-22 0z"/>
				<path id="&lt;Path&gt;" class="s6" d="m1011.6 1141c-9.7 30.3-5.6 36.5-18.9 39.3-13.4 2.9-25.6-10.4-29.6-29.1-3.9-18.6 3.7-36 17.1-38.8 13.4-2.9 37.1 10.4 31.4 28.6z"/>
				<path id="&lt;Path&gt;" class="s15" d="m1176.7 1081.8c-52.3 93-156.3 79.3-219.4 47.3-51.5-26.1 146.9-124.9 146.9-124.9z"/>
				<path id="&lt;Path&gt;" class="s15" d="m998.3 1008.2c-19.4-58.5-98.9-44.7-134.9 33.2-36 77.8 19.1 129.8 52.5 110.8 33.4-19.1 82.4-144 82.4-144z"/>
			</g>
			<g id="&lt;Group&gt;">
				<path id="&lt;Compound Path&gt;" fill-rule="evenodd" class="s21" d="m2037.5 909c-8.7 25-19.9 48.9-33.3 71.3l49.7 63.4c-13.7 20-28.9 38.9-45.5 56.5l-72.6-35c-19.1 17.9-40.1 34-62.5 47.8l14.5 79.2c-21.2 11.3-43.4 21-66.5 28.9l-48-64.7c-24.9 6.9-50.9 11.3-77.6 13.1l-24 76.9q-1 0-2 0c-23.9 0-47.4-1.8-70.3-5.3l-12.4-79.6c-26-5.6-51.1-13.8-74.9-24.4l-57 57c-21.5-11.2-42.1-24.1-61.5-38.4l26-76.3c-20.1-16.9-38.5-35.7-54.9-56.3l-76.9 23.9c-13.8-19.7-26.1-40.6-36.8-62.5l58.5-55.4c-9.9-24.1-17.5-49.3-22.4-75.5l-79.2-14.5c-2.4-19.1-3.6-38.4-3.6-58.1q0-7.2 0.2-14.4l77.5-21.9c2.5-26.6 7.6-52.4 15.1-77.2l-63.4-49.7c8.6-22.8 18.8-44.8 30.7-65.7l78.8 16.6c14.4-22.1 31-42.6 49.4-61.3l-33-73.4c18-16.1 37.2-30.9 57.6-44.1l62.1 51.4c22.7-12.8 46.9-23.4 72.2-31.4l4.9-80.4c23.2-5.8 47-9.9 71.5-12.1l31.1 74.3q5.3-0.1 10.7-0.1c23.1 0 45.8 2 67.8 5.9l41.7-69c23.7 5.8 46.7 13.3 68.9 22.5l-7 80.3c23.7 11.6 46.1 25.6 66.8 41.6l68.9-41.6c18.2 16 35.1 33.3 50.6 51.9l-43.5 67.8c15.5 21.1 28.9 43.9 39.9 67.9l80.5-4.9c8.6 22.4 15.5 45.6 20.6 69.5l-70.1 39.9c2.8 18.8 4.3 38 4.3 57.6q0 10.6-0.6 21l73.5 33.1c-2.8 24.3-7.5 48.1-13.9 71.1zm-176.4-128c0-105.7-85.7-191.5-191.5-191.5-105.8 0-191.5 85.8-191.5 191.5 0 105.8 85.7 191.6 191.5 191.6 105.8 0 191.5-85.8 191.5-191.6z"/>
				<g id="&lt;Group&gt;">
					<path id="&lt;Path&gt;" class="s19" d="m1398.5 989.7c-1.5 0-3.1-0.7-4-2-10.9-14.7-20.7-30.3-29.2-46.5-1.2-2.4-0.3-5.5 2.2-6.7 2.4-1.3 5.4-0.4 6.7 2.1 8.2 15.7 17.7 30.9 28.3 45.1 1.6 2.2 1.2 5.3-1 7-0.9 0.7-2 1-3 1z"/>
				</g>
				<g id="&lt;Group&gt;">
					<path id="&lt;Path&gt;" class="s19" d="m1628.1 1124.8q-0.3 0-0.6 0c-60-7.9-117.2-31.5-165.3-68.4-2.2-1.7-2.6-4.9-1-7 1.7-2.2 4.9-2.7 7-1 46.8 35.9 102.3 58.8 160.6 66.5 2.7 0.3 4.6 2.9 4.3 5.6-0.4 2.5-2.5 4.3-5 4.3z"/>
				</g>
			</g>
			<g id="&lt;Group&gt;">
				<path id="&lt;Path&gt;" class="s18" d="m2585.3 1054.1h-909.1v-504.4h909.1z"/>
				<path id="&lt;Path&gt;" class="s19" d="m2559.3 1020.1h-873.1v-459.4h873.1z"/>
				<g id="&lt;Group&gt;" style="opacity: .5">
					<g id="&lt;Group&gt;">
						<path id="&lt;Compound Path&gt;" fill-rule="evenodd" class="s18" d="m2528 984.1h-828c-1.1 0-2-0.9-2-2v-414.9c0-1.1 0.9-2 2-2h828c1.1 0 2 0.9 2 2v414.9c0 1.1-0.9 2-2 2zm-826-4h824v-410.9h-824z"/>
					</g>
					<g id="&lt;Group&gt;">
						<path id="&lt;Path&gt;" class="s18" d="m2528 914.9h-828c-1.1 0-2-0.9-2-2 0-1.1 0.9-2 2-2h828c1.1 0 2 0.9 2 2 0 1.1-0.9 2-2 2z"/>
					</g>
					<g id="&lt;Group&gt;">
						<path id="&lt;Path&gt;" class="s18" d="m2528 845.8h-828c-1.1 0-2-0.9-2-2 0-1.1 0.9-2 2-2h828c1.1 0 2 0.9 2 2 0 1.1-0.9 2-2 2z"/>
					</g>
					<g id="&lt;Group&gt;">
						<path id="&lt;Path&gt;" class="s18" d="m2528 776.6h-828c-1.1 0-2-0.9-2-2 0-1.1 0.9-2 2-2h828c1.1 0 2 0.9 2 2 0 1.1-0.9 2-2 2z"/>
					</g>
					<g id="&lt;Group&gt;">
						<path id="&lt;Path&gt;" class="s18" d="m2528 707.5h-828c-1.1 0-2-0.9-2-2 0-1.1 0.9-2 2-2h828c1.1 0 2 0.9 2 2 0 1.1-0.9 2-2 2z"/>
					</g>
					<g id="&lt;Group&gt;">
						<path id="&lt;Path&gt;" class="s18" d="m2528 638.4h-828c-1.1 0-2-0.9-2-2 0-1.1 0.9-2 2-2h828c1.1 0 2 0.9 2 2 0 1.1-0.9 2-2 2z"/>
					</g>
					<g id="&lt;Group&gt;">
						<path id="&lt;Path&gt;" class="s18" d="m2390 984.1c-1.1 0-2-0.9-2-2v-414.9c0-1.1 0.9-2 2-2 1.1 0 2 0.9 2 2v414.9c0 1.1-0.9 2-2 2z"/>
					</g>
					<g id="&lt;Group&gt;">
						<path id="&lt;Path&gt;" class="s18" d="m2252 984.1c-1.1 0-2-0.9-2-2v-414.9c0-1.1 0.9-2 2-2 1.1 0 2 0.9 2 2v414.9c0 1.1-0.9 2-2 2z"/>
					</g>
					<g id="&lt;Group&gt;">
						<path id="&lt;Path&gt;" class="s18" d="m2114 984.1c-1.1 0-2-0.9-2-2v-414.9c0-1.1 0.9-2 2-2 1.1 0 2 0.9 2 2v414.9c0 1.1-0.9 2-2 2z"/>
					</g>
					<g id="&lt;Group&gt;">
						<path id="&lt;Path&gt;" class="s18" d="m1976 984.1c-1.1 0-2-0.9-2-2v-414.9c0-1.1 0.9-2 2-2 1.1 0 2 0.9 2 2v414.9c0 1.1-0.9 2-2 2z"/>
					</g>
					<g id="&lt;Group&gt;">
						<path id="&lt;Path&gt;" class="s18" d="m1838 984.1c-1.1 0-2-0.9-2-2v-414.9c0-1.1 0.9-2 2-2 1.1 0 2 0.9 2 2v414.9c0 1.1-0.9 2-2 2z"/>
					</g>
				</g>
				<g id="&lt;Group&gt;">
					<path id="&lt;Path&gt;" class="s22" d="m1700 986.1c-1.5 0-2.9-0.8-3.6-2.2-1-2-0.2-4.4 1.8-5.4l137.4-68.9 70.9-68.2 65.9-137.6q0.3-0.7 0.9-1.3l74.9-66.7c0.9-0.8 2.2-1.2 3.4-0.9 1.3 0.3 2.3 1.1 2.9 2.2l63 135.7 75 133.2 56.5-64.8c0.7-0.9 1.8-1.4 2.9-1.4 1.1-0.1 2.1 0.4 2.9 1.2l64.3 64.5 67.1-201.3q0.3-0.9 1-1.5l138-138.3c1.5-1.6 4.1-1.6 5.6 0 1.6 1.6 1.6 4.1 0 5.7l-137.3 137.6-68.9 206.5c-0.4 1.3-1.5 2.3-2.9 2.6-1.3 0.3-2.7-0.1-3.7-1.1l-65.8-66.1-57.4 65.9c-0.8 1-2.1 1.5-3.4 1.4-1.3-0.1-2.4-0.9-3.1-2l-77.8-138.3q-0.1-0.1-0.1-0.3l-60.9-130.9-70.3 62.6-65.8 137.5q-0.3 0.7-0.8 1.2l-71.9 69.1q-0.4 0.4-0.9 0.7l-138 69.1q-0.9 0.5-1.8 0.5z"/>
				</g>
				<g id="&lt;Group&gt;">
					<path id="&lt;Path&gt;" class="s18" d="m1700 986.1c-1 0-2-0.4-2.8-1.2-1.6-1.5-1.6-4.1-0.1-5.6l202.4-207.5c1.5-1.5 4-1.6 5.6-0.1l70.8 66.5 135.3-135.5c1.5-1.6 4-1.6 5.6-0.1l68.9 66.4 63.4-66.3c0.7-0.7 1.8-1.2 2.9-1.2 1 0 2.1 0.4 2.8 1.2l134.1 134.3 135.5-271.6c1-1.9 3.4-2.7 5.4-1.8 2 1 2.8 3.4 1.8 5.4l-138 276.6c-0.6 1.1-1.7 1.9-3 2.1-1.2 0.2-2.5-0.2-3.4-1.1l-135.1-135.4-63.4 66.2c-0.7 0.8-1.7 1.2-2.8 1.2-1 0.1-2.1-0.3-2.9-1.1l-69-66.4-135.2 135.5c-1.5 1.5-4 1.6-5.6 0.1l-70.7-66.5-199.7 204.7c-0.8 0.8-1.8 1.2-2.8 1.2z"/>
				</g>
			</g>
			<g id="&lt;Group&gt;">
				<path id="&lt;Path&gt;" class="s18" d="m1706.5 806h-246.9v-446.5c0-5.4 4.4-9.8 9.8-9.8h292.6c5.4 0 9.8 4.4 9.8 9.8v381.2c0 36-29.2 65.3-65.3 65.3z"/>
				<path id="&lt;Path&gt;" class="s19" d="m1699.3 793.3h-236.2v-426.5c0-5.2 4.2-9.4 9.4-9.4h279.4c5.2 0 9.4 4.2 9.4 9.4v364.5c0 34.3-27.8 62-62 62z"/>
				<path id="&lt;Path&gt;" class="s18" d="m1638.6 703.9v-7.9c0-6.2-4.3-11.2-9.7-11.2h-299.1c-5.3 0-9.7 5-9.7 11.2v7.9c0 55.7 39 100.9 87.2 100.9h305.6c-48.2 0-75-40.1-74.3-100.9z"/>
				<path id="&lt;Path&gt;" class="s19" d="m1631.2 711.7v-6.4c0-5-4-9.1-9-9.1h-280.1c-5 0-9.1 4.1-9.1 9.1v6.4c0 45.1 36.6 81.6 81.6 81.6h298.3c-45.1 0-81.7-21.8-81.7-81.6z"/>
				<g id="&lt;Group&gt;">
					<path id="&lt;Compound Path&gt;" fill-rule="evenodd" class="s18" d="m1730 539.3h-213c-6.7 0-12.2-5.5-12.2-12.3v-115.7c0-6.7 5.5-12.2 12.2-12.2h213c6.8 0 12.2 5.5 12.2 12.2v115.7c0 6.8-5.4 12.3-12.2 12.3zm-213-136.2c-4.5 0-8.2 3.7-8.2 8.2v115.7c0 4.6 3.7 8.3 8.2 8.3h213c4.6 0 8.2-3.7 8.2-8.3v-115.7c0-4.5-3.6-8.2-8.2-8.2z"/>
				</g>
				<path id="&lt;Path&gt;" class="s18" d="m1659.2 595.5h-234.1c-3.4 0-6.1-2.8-6.1-6.1 0-3.3 2.7-6 6.1-6h234.1c3.3 0 6.1 2.7 6.1 6 0 3.3-2.8 6.1-6.1 6.1z"/>
				<path id="&lt;Path&gt;" class="s18" d="m1659.2 617.5h-234.1c-3.4 0-6.1-2.7-6.1-6 0-3.4 2.7-6.1 6.1-6.1h234.1c3.3 0 6.1 2.7 6.1 6.1 0 3.3-2.8 6-6.1 6z"/>
				<path id="&lt;Path&gt;" class="s18" d="m1659.2 638.8h-234.1c-3.4 0-6.1-2.7-6.1-6 0-3.4 2.7-6.1 6.1-6.1h234.1c3.3 0 6.1 2.7 6.1 6.1 0 3.3-2.8 6-6.1 6z"/>
				<g id="&lt;Group&gt;">
					<path id="&lt;Path&gt;" class="s18" d="m1671.9 429.9h-7.9c-1.6 0-2.9-1.3-2.9-3v-6.4c0-1.7 1.3-3 2.9-3h7.9c1.6 0 3 1.3 3 3v6.4c0 1.7-1.4 3-3 3z"/>
					<path id="&lt;Path&gt;" class="s18" d="m1697 429.9h-7.8c-1.7 0-3-1.3-3-3v-6.4c0-1.7 1.3-3 3-3h7.8c1.6 0 3 1.3 3 3v6.4c0 1.7-1.4 3-3 3z"/>
					<path id="&lt;Path&gt;" class="s18" d="m1722.1 429.9h-7.8c-1.7 0-3-1.3-3-3v-6.4c0-1.7 1.3-3 3-3h7.8c1.6 0 3 1.3 3 3v6.4c0 1.7-1.4 3-3 3z"/>
				</g>
				<path id="&lt;Path&gt;" class="s18" d="m1559.6 521.2h-31.5v-52h31.5z"/>
				<path id="&lt;Path&gt;" class="s18" d="m1646.5 521.2h-31.5v-47.7h31.5z"/>
				<path id="&lt;Path&gt;" class="s18" d="m1696.8 521.2h-31.5v-69h31.5z"/>
				<path id="&lt;Path&gt;" class="s18" d="m1602.2 521.2h-31.5v-31.5h31.5z"/>
			</g>
			<g id="&lt;Group&gt;">
				<path id="&lt;Path&gt;" class="s18" d="m3413.3 866.3h112.2c0 61.6-50.7 112.3-112.2 112.3-61.6 0-112.3-50.7-112.3-112.3 0-61.5 50.7-112.2 112.3-112.2z"/>
				<g id="&lt;Group&gt;">
					<path id="&lt;Path&gt;" class="s22" d="m3544.3 850.6c0-62-50.2-112.2-112.2-112.2v112.2z"/>
					<path id="&lt;Path&gt;" class="s22" d="m3319.8 850.6c0 62 50.3 112.3 112.3 112.3-61.6 0-112.3-50.7-112.3-112.3z"/>
					<path id="&lt;Path&gt;" class="s22" d="m3432.1 738.4c-62 0-112.3 50.2-112.3 112.2 0-61.5 50.7-112.2 112.3-112.2z"/>
					<path id="&lt;Path&gt;" class="s22" d="m3432.1 962.9c62 0 112.2-50.3 112.2-112.3 0 61.6-50.7 112.3-112.2 112.3z"/>
				</g>
			</g>
			<path id="&lt;Path&gt;" class="s22" d="m2060.8 638.8c0-5.5-4.5-9.9-10-9.9-5.5 0-9.9 4.4-9.9 9.9 0 5.5 4.4 10 9.9 10 5.5 0 10-4.5 10-10z"/>
			<path id="&lt;Path&gt;" class="s18" d="m1912.8 774.6c0-5.5-4.5-9.9-10-9.9-5.5 0-9.9 4.4-9.9 9.9 0 5.5 4.4 10 9.9 10 5.5 0 10-4.5 10-10z"/>
			<path id="&lt;Path&gt;" class="s18" d="m2123.9 705.5c0-5.5-4.4-9.9-9.9-9.9-5.5 0-10 4.4-10 9.9 0 5.5 4.5 10 10 10 5.5 0 9.9-4.5 9.9-10z"/>
			<path id="&lt;Path&gt;" class="s18" d="m2261.9 705.5c0-5.5-4.4-9.9-9.9-9.9-5.5 0-10 4.4-10 9.9 0 5.5 4.5 10 10 10 5.5 0 9.9-4.5 9.9-10z"/>
			<path id="&lt;Path&gt;" class="s22" d="m2400 705.5c0-5.5-4.5-9.9-10-9.9-5.5 0-10 4.4-10 9.9 0 5.5 4.5 10 10 10 5.5 0 10-4.5 10-10z"/>
			<g id="&lt;Group&gt;">
				<path id="&lt;Path&gt;" class="s23" d="m1439.5 804.8c0 29.6-24 53.7-53.7 53.7-29.7 0-53.7-24.1-53.7-53.7 0-29.7 24-53.7 53.7-53.7 29.7 0 53.7 24 53.7 53.7z"/>
				<g id="&lt;Group&gt;">
					<path id="&lt;Path&gt;" class="s19" d="m1380.5 823.5q-0.1 0-0.1 0c-0.9 0-1.6-0.4-2.2-1l-14.6-16.6c-1.1-1.2-0.9-3.1 0.3-4.2 1.2-1.1 3.1-1 4.2 0.3l12.5 14.2 28.9-28.3c1.2-1.2 3.1-1.1 4.3 0 1.1 1.2 1.1 3.1-0.1 4.3l-31.1 30.5c-0.6 0.5-1.3 0.8-2.1 0.8z"/>
				</g>
			</g>
			<g id="&lt;Group&gt;">
				<path id="&lt;Path&gt;" class="s18" d="m662.8 676.4h-35.8v-195h35.8z"/>
				<path id="&lt;Path&gt;" class="s18" d="m814.3 676.4h-35.8v-138.2h35.8z"/>
				<path id="&lt;Path&gt;" class="s18" d="m890 676.4h-35.7v-195h35.7z"/>
				<path id="&lt;Path&gt;" class="s18" d="m965.8 676.4h-35.8v-69.1h35.8z"/>
				<path id="&lt;Path&gt;" class="s18" d="m738.5 676.4h-35.7v-254.3h35.7z"/>
				<path id="&lt;Path&gt;" class="s18" d="m1041.8 676.4h-35.8v-138.2h35.8z"/>
			</g>
			<g id="&lt;Group&gt;">
				<path id="&lt;Path&gt;" class="s18" d="m2862.2 602.5h-35.7v-103.4h35.7z"/>
				<path id="&lt;Path&gt;" class="s18" d="m3320.4 602.5h-35.7v-69.8h35.7z"/>
				<path id="&lt;Path&gt;" class="s18" d="m3013.7 602.5h-35.7v-242h35.7z"/>
				<path id="&lt;Path&gt;" class="s18" d="m3089.5 602.5h-35.8v-108.8h35.8z"/>
				<path id="&lt;Path&gt;" class="s18" d="m3165.2 602.5h-35.7v-139.6h35.7z"/>
				<path id="&lt;Path&gt;" class="s18" d="m2938 602.5h-35.8v-171.7h35.8z"/>
				<path id="&lt;Path&gt;" class="s18" d="m3241.2 602.5h-35.7v-211.5h35.7z"/>
			</g>
			<g id="&lt;Clip Group&gt;" clip-path="url(#cp1)">
				<path id="&lt;Path&gt;" class="s1" d="m641.6 1088.9l-128.6-78.6-23.2 148.9c60.4 9.5 120.3-18.8 151.8-70.3z"/>
				<path id="&lt;Path&gt;" class="s23" d="m641.7 1088.7c0.4-0.6 0.8-1.3 0.8-1.3 27.2-45.5 28.3-102 3.3-148.3-45.4 23.8-18.4 9.3-132.8 71.2 128.8 78.7 108.8 66.6 128.7 78.4z"/>
				<path id="&lt;Path&gt;" class="s18" d="m371.7 958.2l141.3 52.1 132.6-71.7c-62-114.7-228.9-100.9-273.9 19.6z"/>
				<path id="&lt;Path&gt;" class="s22" d="m489.8 1159.2l23.2-148.9-141.3-52.1c-33.6 90.1 26.1 186.5 118.1 201z"/>
				<g id="&lt;Group&gt;">
					<g id="&lt;Group&gt;">
						<path id="&lt;Compound Path&gt;" fill-rule="evenodd" class="s0" d="m648.5 1087.2l-1.6 2.6q-0.1 0.1-0.1 0.2l-0.1 0.1c-0.2 0.3-0.5 0.8-0.7 1.2 0 0-1.6 2.6-1.6 2.6l-1 1.6h-0.1c-15.9 24.3-38.2 43.6-64.7 55.9-20.7 9.7-43 14.6-65.4 14.6q-9.6 0-19.2-1.2v0.1c0 0-5-0.8-5-0.8l-4.9-0.8v-0.1c-44.2-8.4-82.5-35.5-105.6-75-22.6-38.8-27.3-84.8-13.1-127h-0.1l1.7-4.7 1.8-4.7h0.1c22.7-55.6 73.6-92.5 134-96.7 29-2 57.6 3.9 82.8 17 25.7 13.4 47.1 34.2 62.1 60.3l0.1-0.1 2 3.6q0 0.2 0.1 0.3l2.4 4.4-0.1 0.1c23.1 46.1 21.6 101.6-3.9 146.5zm-44.1-120.7l-81.3 44 97.9 59.9c10.5 6.4 12.8 7.7 18 10.8 0 0 1 0.6 1 0.6 23.5-41.7 24.9-93.1 3.7-136-4 2.1-7.4 3.9-10.4 5.4-12.1 6.3-17 8.9-28.9 15.3zm-157.2 14.1l61.9 22.8 0.2-1.3 3.9 2.4 1.2-0.7c19.6-10.6 34.8-18.8 46.9-25.4 18.9-10.2 30.2-16.3 38.3-20.7l39.2-21.1c-28.1-48.1-79.4-75.4-135.2-71.5-56.4 3.9-104 38.3-125.3 90.1zm38.5 172.7l21.8-139.8-39.6-14.6-93.1-34.3c-13.2 39.4-8.7 82.3 12.4 118.6 21.5 36.8 57.2 62.2 98.5 70.1zm149-62.8l-19.2-11.7c-8-5-20.8-12.8-43.2-26.5l-55.4-33.9-21.4 136.5c55 6.7 108.6-18.1 139.2-64.4z"/>
					</g>
				</g>
			</g>
			<path id="&lt;Path&gt;" class="s18" d="m422.6 1334.1c0 24.8-20.1 44.9-44.9 44.9-24.8 0-44.9-20.1-44.9-44.9 0-24.8 20.1-44.9 44.9-44.9 24.8 0 44.9 20.1 44.9 44.9z"/>
			<path id="&lt;Path&gt;" class="s19" d="m410.7 1336.1c0 12.4-10.1 22.5-22.5 22.5-12.4 0-22.5-10.1-22.5-22.5 0-12.4 10.1-22.5 22.5-22.5 12.4 0 22.5 10.1 22.5 22.5z"/>
			<path id="&lt;Path&gt;" class="s18" d="m3451.7 1333.5h-111.4c-16.3 0-29.7-13.3-29.7-29.6v-111.4c0-16.3 13.4-29.6 29.7-29.6h111.4c16.3 0 29.6 13.3 29.6 29.6v111.4c0 16.3-13.3 29.6-29.6 29.6z"/>
			<g id="&lt;Group&gt;">
				<path id="&lt;Compound Path&gt;" fill-rule="evenodd" class="s19" d="m3503.6 1364.6h-111.4c-19.1 0-34.7-15.5-34.7-34.6v-111.4c0-19.1 15.6-34.6 34.7-34.6h111.4c19 0 34.6 15.5 34.6 34.6v111.4c0 19.1-15.6 34.6-34.6 34.6zm-111.4-170.6c-13.6 0-24.7 11-24.7 24.6v111.4c0 13.6 11.1 24.6 24.7 24.6h111.4c13.5 0 24.6-11 24.6-24.6v-111.4c0-13.6-11.1-24.6-24.6-24.6z"/>
			</g>
			<path id="&lt;Path&gt;" class="s18" d="m1489.9 1339.8l-28.4-32.8c-4.4-5-3.8-12.6 1.2-16.9l32.8-28.5c5-4.3 12.6-3.7 16.9 1.3l28.4 32.7c4.3 5 3.8 12.6-1.2 17l-32.8 28.4c-5 4.3-12.6 3.8-16.9-1.2z"/>
			<path id="&lt;Path&gt;" class="s18" d="m1660.6 1367.2c0 13.9-11.2 25.1-25.1 25.1-13.8 0-25.1-11.2-25.1-25.1 0-13.8 11.3-25.1 25.1-25.1 13.9 0 25.1 11.3 25.1 25.1z"/>
			<path id="&lt;Path&gt;" class="s18" d="m3809.1 1289.5c0 13.8-11.2 25-25.1 25-13.8 0-25-11.2-25-25 0-13.9 11.2-25.1 25-25.1 13.9 0 25.1 11.2 25.1 25.1z"/>
			<path id="&lt;Path&gt;" class="s18" d="m3162 779.4c0 13.8-11.2 25-25 25-13.8 0-25-11.2-25-25 0-13.8 11.2-25 25-25 13.8 0 25 11.2 25 25z"/>
			<path id="&lt;Path&gt;" class="s18" d="m3638.9 1089.3c0 10.7-8.8 19.5-19.5 19.5-10.8 0-19.5-8.8-19.5-19.5 0-10.8 8.7-19.5 19.5-19.5 10.7 0 19.5 8.7 19.5 19.5z"/>
			<g id="&lt;Group&gt;">
				<path id="&lt;Path&gt;" class="s18" d="m2942.2 848.5h-414.6c-4.5 0-8.2-3.7-8.2-8.2v-178.4c0-4.5 3.7-8.2 8.2-8.2h414.6c4.5 0 8.1 3.7 8.1 8.2v178.4c0 4.5-3.6 8.2-8.1 8.2z"/>
				<path id="&lt;Path&gt;" class="s19" d="m2931.9 839.3h-394.1c-3.6 0-6.6-2.9-6.6-6.6v-121.2c0-3.7 3-6.6 6.6-6.6h394.1c3.7 0 6.6 2.9 6.6 6.6v121.2c0 3.7-2.9 6.6-6.6 6.6z"/>
				<g id="&lt;Group&gt;">
					<path id="&lt;Path&gt;" class="s19" d="m2550.4 683.2h-9.6c-2 0-3.6-1.6-3.6-3.6v-7.9c0-2 1.6-3.7 3.6-3.7h9.6c2 0 3.7 1.7 3.7 3.7v7.9c0 2-1.7 3.6-3.7 3.6z"/>
					<path id="&lt;Path&gt;" class="s19" d="m2581.1 683.2h-9.6c-2 0-3.6-1.6-3.6-3.6v-7.9c0-2 1.6-3.7 3.6-3.7h9.6c2 0 3.7 1.7 3.7 3.7v7.9c0 2-1.7 3.6-3.7 3.6z"/>
					<path id="&lt;Path&gt;" class="s19" d="m2611.8 683.2h-9.6c-2 0-3.6-1.6-3.6-3.6v-7.9c0-2 1.6-3.7 3.6-3.7h9.6c2 0 3.7 1.7 3.7 3.7v7.9c0 2-1.7 3.6-3.7 3.6z"/>
				</g>
				<path id="&lt;Path&gt;" class="s18" d="m2922 734.3h-215.5c-3.5 0-6.4-2.9-6.4-6.4 0-3.5 2.9-6.4 6.4-6.4h215.5c3.5 0 6.4 2.9 6.4 6.4 0 3.5-2.9 6.4-6.4 6.4z"/>
				<path id="&lt;Path&gt;" class="s18" d="m2759.9 833.8h-215.5c-3.5 0-6.4-2.9-6.4-6.5 0-3.5 2.9-6.4 6.4-6.4h215.5c3.6 0 6.5 2.9 6.5 6.4 0 3.6-2.9 6.5-6.5 6.5z"/>
				<path id="&lt;Path&gt;" class="s18" d="m2799.6 833.8h-22.3c-1.2 0-2.2-1-2.2-2.2v-8.5c0-1.2 1-2.2 2.2-2.2h22.3c1.2 0 2.2 1 2.2 2.2v8.5c0 1.2-1 2.2-2.2 2.2z"/>
				<path id="&lt;Path&gt;" class="s18" d="m2833.2 833.8h-22.3c-1.2 0-2.2-1-2.2-2.2v-8.5c0-1.2 1-2.2 2.2-2.2h22.3c1.2 0 2.2 1 2.2 2.2v8.5c0 1.2-1 2.2-2.2 2.2z"/>
				<path id="&lt;Path&gt;" class="s18" d="m2924 762.4h-356.8c-2.4 0-4.3-1.9-4.3-4.3 0-2.5 1.9-4.4 4.3-4.4h356.8c2.4 0 4.4 1.9 4.4 4.4 0 2.4-2 4.3-4.4 4.3z"/>
				<path id="&lt;Path&gt;" class="s18" d="m2924 781.3h-356.8c-2.4 0-4.3-2-4.3-4.4 0-2.4 1.9-4.3 4.3-4.3h356.8c2.4 0 4.4 1.9 4.4 4.3 0 2.4-2 4.4-4.4 4.4z"/>
			</g>
			<path id="&lt;Path&gt;" class="s18" d="m437.7 648.8c0 27.3-22.2 49.5-49.5 49.5-27.3 0-49.5-22.2-49.5-49.5 0-27.4 22.2-49.5 49.5-49.5 27.3 0 49.5 22.1 49.5 49.5z"/>
			<path id="&lt;Path&gt;" class="s18" d="m1078.7 794.5h-355.7c-3.6 0-6.6-3-6.6-6.6 0-3.6 3-6.6 6.6-6.6h355.7c3.6 0 6.6 3 6.6 6.6 0 3.6-3 6.6-6.6 6.6z"/>
			<path id="&lt;Path&gt;" class="s18" d="m1078.7 827.5h-355.7c-3.6 0-6.6-3-6.6-6.6 0-3.6 3-6.6 6.6-6.6h355.7c3.6 0 6.6 3 6.6 6.6 0 3.6-3 6.6-6.6 6.6z"/>
			<g id="&lt;Group&gt;">
				<path id="&lt;Compound Path&gt;" fill-rule="evenodd" class="s21" d="m2367.6 1311.3c-3.9 19.1-10.4 37.3-19.2 54.1l28.4 39c-7.6 12-16.3 23.2-25.9 33.7l-45-17.4c-14.1 13-30 23.9-47.3 32.5l0.1 48.3c-13.1 5.2-26.7 9.2-40.8 12.1l-26.2-40.6q-11.5 1.3-23.4 1.3c-11.5 0-22.9-0.9-33.9-2.8l-28.4 39.1c-13.9-3.6-27.3-8.3-40.1-14.2l2.6-48.2c-16.7-9.5-32-21.3-45.4-34.9l-45.9 14.9c-9-10.9-17.1-22.6-24.1-35l30.4-37.5c-7.9-17.2-13.4-35.6-16.2-55l-46-14.8q-0.4-7.4-0.4-14.8c0-9.4 0.5-18.6 1.6-27.8l46.6-12.4c3.8-19.1 10.3-37.3 19.1-54l-28.4-39.1c7.7-11.9 16.4-23.2 26-33.7l45 17.4c14.1-12.9 29.9-23.9 47.2-32.5v-48.3c13.1-5.1 26.7-9.2 40.7-12.1l26.3 40.6q11.5-1.3 23.3-1.3c11.6 0 23 1 34 2.8l28.4-39.1c13.8 3.6 27.2 8.4 40 14.2l-2.6 48.2c16.8 9.5 32.1 21.3 45.5 35l45.9-15c9 10.9 17.1 22.7 24.1 35l-30.4 37.5c7.8 17.2 13.4 35.6 16.2 55l45.9 14.9q0.5 7.3 0.5 14.7c0 9.4-0.6 18.7-1.6 27.8zm-102.2-40.2c0-53.6-43.4-97-97-97-53.6 0-97.1 43.4-97.1 97 0 53.6 43.5 97.1 97.1 97.1 53.6 0 97-43.5 97-97.1z"/>
				<g id="&lt;Group&gt;">
					<path id="&lt;Path&gt;" class="s19" d="m2300.7 1383.2c-1.1 0-2.3-0.4-3.2-1.2-2.1-1.7-2.4-4.9-0.6-7 24.1-29.1 37.5-66 37.5-103.9 0-18.1-3-35.9-8.9-52.9-0.9-2.7 0.5-5.5 3.1-6.4 2.7-0.9 5.5 0.5 6.4 3.1 6.2 18 9.4 37 9.4 56.2 0 40.2-14.2 79.4-39.9 110.3-0.9 1.2-2.4 1.8-3.8 1.8z"/>
				</g>
				<g id="&lt;Group&gt;">
					<path id="&lt;Path&gt;" class="s19" d="m2286.6 1154.1c-1.2 0-2.4-0.4-3.4-1.4-16.2-15.3-35.1-26.9-55.9-34.4-2.6-1-4-3.8-3-6.4 0.9-2.6 3.8-4 6.4-3 22.1 8 42.1 20.3 59.4 36.6 2 1.9 2.1 5 0.2 7-1 1.1-2.3 1.6-3.7 1.6z"/>
				</g>
				<g id="&lt;Group&gt;">
					<path id="&lt;Path&gt;" class="s19" d="m2130.7 1113.7c-2.2 0-4.3-1.5-4.9-3.8-0.6-2.7 1-5.4 3.7-6.1 13.7-3.5 28-5.2 42.3-5.2 2.8 0 5 2.2 5 5 0 2.7-2.2 5-5 5-13.5 0-26.9 1.6-39.9 4.9q-0.6 0.2-1.2 0.2z"/>
				</g>
			</g>
		</g>
	</g>
</svg>