<svg xmlns="http://www.w3.org/2000/svg" xmlns:xlink="http://www.w3.org/1999/xlink" width="2200" zoomAndPan="magnify" viewBox="0 0 1650 1115.250006" height="1487" preserveAspectRatio="xMidYMid meet" version="1.0"><defs><g/></defs><path fill="#a6a6a6" d="M 1078.597656 568.597656 C 1052.867188 582.769531 1021.03125 594.761719 984.835938 603.484375 L 984.835938 391.539062 C 1025.175781 399.824219 1060.066406 411.816406 1086.886719 425.121094 L 1086.886719 563.800781 C 1084.269531 565.324219 1081.433594 567.070312 1078.597656 568.597656 Z M 1078.597656 568.597656 " fill-opacity="1" fill-rule="nonzero"/><path fill="#a6a6a6" d="M 944.933594 612.207031 C 915.714844 617.441406 884.3125 620.929688 851.386719 622.019531 L 851.386719 377.800781 C 888.019531 378.019531 922.035156 380.855469 953.4375 385.871094 L 953.4375 610.679688 C 950.601562 611.335938 947.765625 611.769531 944.933594 612.207031 Z M 944.933594 612.207031 " fill-opacity="1" fill-rule="nonzero"/><path fill="#a6a6a6" d="M 811.484375 623.109375 C 778.773438 622.890625 747.375 620.492188 717.9375 616.351562 L 717.9375 388.921875 C 749.121094 383.253906 783.136719 379.328125 819.988281 378.238281 L 819.988281 623.109375 Z M 811.484375 623.109375 " fill-opacity="1" fill-rule="nonzero"/><path fill="#a6a6a6" d="M 678.035156 610.027344 C 643.144531 603.046875 611.527344 593.453125 584.269531 581.460938 L 584.269531 436.023438 C 609.566406 419.886719 644.453125 405.929688 686.320312 395.683594 L 686.320312 611.335938 C 683.484375 611.117188 680.652344 610.460938 678.035156 610.027344 Z M 678.035156 610.027344 " fill-opacity="1" fill-rule="nonzero"/><path fill="#af9543" d="M 1086.886719 352.726562 L 1086.886719 222.550781 L 984.835938 274.445312 L 984.835938 321.328125 C 974.804688 319.148438 964.121094 317.402344 953.4375 315.65625 L 953.4375 118.976562 L 851.386719 170.871094 L 851.386719 306.71875 C 844.628906 306.5 826.746094 306.28125 819.988281 306.71875 L 819.988281 76.238281 L 717.9375 128.132812 L 717.9375 314.566406 C 707.035156 316.09375 696.785156 317.839844 686.320312 320.019531 L 686.320312 197.039062 L 584.269531 248.933594 L 584.269531 349.675781 C 453.222656 403.53125 428.582031 494.894531 545.894531 561.835938 C 523.871094 542.429688 511.222656 520.625 511.222656 497.292969 C 511.222656 419.015625 640.3125 377.800781 717.9375 362.976562 C 832.199219 342.476562 982.65625 349.675781 1086.886719 397.207031 C 1143.796875 423.15625 1178.902344 458.261719 1178.902344 497.292969 C 1178.902344 501.4375 1178.6875 505.582031 1177.597656 509.722656 C 1221.859375 443.4375 1161.023438 385.433594 1086.886719 352.726562 Z M 1086.886719 352.726562 " fill-opacity="1" fill-rule="nonzero"/><g fill="#f1f5f9" fill-opacity="1"><g transform="translate(359.578576, 1020.131817)"><g><path d="M 33.40625 0.484375 C 27.863281 0.484375 22.867188 -0.738281 18.421875 -3.1875 C 13.972656 -5.644531 10.484375 -9.046875 7.953125 -13.390625 C 5.421875 -17.734375 4.15625 -22.59375 4.15625 -27.96875 C 4.15625 -33.351562 5.421875 -38.21875 7.953125 -42.5625 C 10.484375 -46.90625 13.984375 -50.300781 18.453125 -52.75 C 22.929688 -55.195312 27.941406 -56.421875 33.484375 -56.421875 C 37.640625 -56.421875 41.472656 -55.726562 44.984375 -54.34375 C 48.503906 -52.957031 51.492188 -50.929688 53.953125 -48.265625 L 50.1875 -44.515625 C 45.820312 -48.941406 40.304688 -51.15625 33.640625 -51.15625 C 29.222656 -51.15625 25.203125 -50.140625 21.578125 -48.109375 C 17.953125 -46.085938 15.113281 -43.316406 13.0625 -39.796875 C 11.007812 -36.285156 9.984375 -32.34375 9.984375 -27.96875 C 9.984375 -23.601562 11.007812 -19.660156 13.0625 -16.140625 C 15.113281 -12.628906 17.953125 -9.859375 21.578125 -7.828125 C 25.203125 -5.804688 29.222656 -4.796875 33.640625 -4.796875 C 40.359375 -4.796875 45.875 -7.035156 50.1875 -11.515625 L 53.953125 -7.75 C 51.492188 -5.082031 48.492188 -3.039062 44.953125 -1.625 C 41.410156 -0.21875 37.5625 0.484375 33.40625 0.484375 Z M 33.40625 0.484375 "/></g></g></g><g fill="#f1f5f9" fill-opacity="1"><g transform="translate(437.023751, 1020.131817)"><g><path d="M 33.5625 0.484375 C 28.019531 0.484375 23 -0.753906 18.5 -3.234375 C 14 -5.710938 10.484375 -9.109375 7.953125 -13.421875 C 5.421875 -17.742188 4.15625 -22.59375 4.15625 -27.96875 C 4.15625 -33.351562 5.421875 -38.203125 7.953125 -42.515625 C 10.484375 -46.828125 14 -50.222656 18.5 -52.703125 C 23 -55.179688 28.019531 -56.421875 33.5625 -56.421875 C 39.101562 -56.421875 44.097656 -55.195312 48.546875 -52.75 C 52.992188 -50.300781 56.5 -46.90625 59.0625 -42.5625 C 61.625 -38.21875 62.90625 -33.351562 62.90625 -27.96875 C 62.90625 -22.59375 61.625 -17.734375 59.0625 -13.390625 C 56.5 -9.046875 52.992188 -5.644531 48.546875 -3.1875 C 44.097656 -0.738281 39.101562 0.484375 33.5625 0.484375 Z M 33.5625 -4.796875 C 37.988281 -4.796875 41.984375 -5.796875 45.546875 -7.796875 C 49.117188 -9.796875 51.914062 -12.566406 53.9375 -16.109375 C 55.96875 -19.648438 56.984375 -23.601562 56.984375 -27.96875 C 56.984375 -32.34375 55.96875 -36.300781 53.9375 -39.84375 C 51.914062 -43.382812 49.117188 -46.15625 45.546875 -48.15625 C 41.984375 -50.15625 37.988281 -51.15625 33.5625 -51.15625 C 29.144531 -51.15625 25.132812 -50.15625 21.53125 -48.15625 C 17.9375 -46.15625 15.113281 -43.382812 13.0625 -39.84375 C 11.007812 -36.300781 9.984375 -32.34375 9.984375 -27.96875 C 9.984375 -23.601562 11.007812 -19.648438 13.0625 -16.109375 C 15.113281 -12.566406 17.9375 -9.796875 21.53125 -7.796875 C 25.132812 -5.796875 29.144531 -4.796875 33.5625 -4.796875 Z M 33.5625 -4.796875 "/></g></g></g><g fill="#f1f5f9" fill-opacity="1"><g transform="translate(524.058716, 1020.131817)"><g><path d="M 55.859375 -55.953125 L 55.859375 0 L 50.984375 0 L 15.03125 -45.390625 L 15.03125 0 L 9.109375 0 L 9.109375 -55.953125 L 13.984375 -55.953125 L 50.03125 -10.546875 L 50.03125 -55.953125 Z M 55.859375 -55.953125 "/></g></g></g><g fill="#f1f5f9" fill-opacity="1"><g transform="translate(609.01587, 1020.131817)"><g><path d="M 19.984375 -50.828125 L 0.3125 -50.828125 L 0.3125 -55.953125 L 45.5625 -55.953125 L 45.5625 -50.828125 L 25.890625 -50.828125 L 25.890625 0 L 19.984375 0 Z M 19.984375 -50.828125 "/></g></g></g><g fill="#f1f5f9" fill-opacity="1"><g transform="translate(674.873413, 1020.131817)"><g><path d="M 44.203125 -14.953125 L 13.03125 -14.953125 L 6.3125 0 L 0.15625 0 L 25.734375 -55.953125 L 31.5625 -55.953125 L 57.140625 0 L 50.90625 0 Z M 42.03125 -19.734375 L 28.609375 -49.796875 L 15.1875 -19.734375 Z M 42.03125 -19.734375 "/></g></g></g><g fill="#f1f5f9" fill-opacity="1"><g transform="translate(752.158733, 1020.131817)"><g><path d="M 44.359375 -28.859375 C 48.035156 -28.054688 50.867188 -26.46875 52.859375 -24.09375 C 54.859375 -21.726562 55.859375 -18.679688 55.859375 -14.953125 C 55.859375 -10.148438 54.085938 -6.457031 50.546875 -3.875 C 47.003906 -1.289062 41.769531 0 34.84375 0 L 9.109375 0 L 9.109375 -55.953125 L 33.25 -55.953125 C 39.476562 -55.953125 44.3125 -54.695312 47.75 -52.1875 C 51.1875 -49.6875 52.90625 -46.144531 52.90625 -41.5625 C 52.90625 -38.46875 52.144531 -35.84375 50.625 -33.6875 C 49.113281 -31.53125 47.023438 -29.921875 44.359375 -28.859375 Z M 15.03125 -51.0625 L 15.03125 -30.765625 L 32.84375 -30.765625 C 37.375 -30.765625 40.863281 -31.628906 43.3125 -33.359375 C 45.769531 -35.097656 47 -37.617188 47 -40.921875 C 47 -44.222656 45.769531 -46.738281 43.3125 -48.46875 C 40.863281 -50.195312 37.375 -51.0625 32.84375 -51.0625 Z M 34.765625 -4.875 C 39.773438 -4.875 43.554688 -5.722656 46.109375 -7.421875 C 48.671875 -9.128906 49.953125 -11.796875 49.953125 -15.421875 C 49.953125 -22.398438 44.890625 -25.890625 34.765625 -25.890625 L 15.03125 -25.890625 L 15.03125 -4.875 Z M 34.765625 -4.875 "/></g></g></g><g fill="#f1f5f9" fill-opacity="1"><g transform="translate(832.400911, 1020.131817)"><g><path d="M 9.109375 -55.953125 L 15.03125 -55.953125 L 15.03125 0 L 9.109375 0 Z M 9.109375 -55.953125 "/></g></g></g><g fill="#f1f5f9" fill-opacity="1"><g transform="translate(876.521674, 1020.131817)"><g><path d="M 9.109375 -55.953125 L 15.03125 -55.953125 L 15.03125 -5.109375 L 46.359375 -5.109375 L 46.359375 0 L 9.109375 0 Z M 9.109375 -55.953125 "/></g></g></g><g fill="#f1f5f9" fill-opacity="1"><g transform="translate(943.57791, 1020.131817)"><g><path d="M 9.109375 -55.953125 L 15.03125 -55.953125 L 15.03125 0 L 9.109375 0 Z M 9.109375 -55.953125 "/></g></g></g><g fill="#f1f5f9" fill-opacity="1"><g transform="translate(987.698674, 1020.131817)"><g><path d="M 9.109375 -55.953125 L 31.890625 -55.953125 C 37.804688 -55.953125 43.023438 -54.765625 47.546875 -52.390625 C 52.078125 -50.015625 55.59375 -46.707031 58.09375 -42.46875 C 60.601562 -38.238281 61.859375 -33.40625 61.859375 -27.96875 C 61.859375 -22.539062 60.601562 -17.707031 58.09375 -13.46875 C 55.59375 -9.226562 52.078125 -5.921875 47.546875 -3.546875 C 43.023438 -1.179688 37.804688 0 31.890625 0 L 9.109375 0 Z M 31.5625 -5.109375 C 36.46875 -5.109375 40.757812 -6.082031 44.4375 -8.03125 C 48.113281 -9.976562 50.960938 -12.671875 52.984375 -16.109375 C 55.015625 -19.546875 56.03125 -23.5 56.03125 -27.96875 C 56.03125 -32.445312 55.015625 -36.40625 52.984375 -39.84375 C 50.960938 -43.28125 48.113281 -45.96875 44.4375 -47.90625 C 40.757812 -49.851562 36.46875 -50.828125 31.5625 -50.828125 L 15.03125 -50.828125 L 15.03125 -5.109375 Z M 31.5625 -5.109375 "/></g></g></g><g fill="#f1f5f9" fill-opacity="1"><g transform="translate(1073.694687, 1020.131817)"><g><path d="M 44.203125 -14.953125 L 13.03125 -14.953125 L 6.3125 0 L 0.15625 0 L 25.734375 -55.953125 L 31.5625 -55.953125 L 57.140625 0 L 50.90625 0 Z M 42.03125 -19.734375 L 28.609375 -49.796875 L 15.1875 -19.734375 Z M 42.03125 -19.734375 "/></g></g></g><g fill="#f1f5f9" fill-opacity="1"><g transform="translate(1150.980052, 1020.131817)"><g><path d="M 9.109375 -55.953125 L 31.890625 -55.953125 C 37.804688 -55.953125 43.023438 -54.765625 47.546875 -52.390625 C 52.078125 -50.015625 55.59375 -46.707031 58.09375 -42.46875 C 60.601562 -38.238281 61.859375 -33.40625 61.859375 -27.96875 C 61.859375 -22.539062 60.601562 -17.707031 58.09375 -13.46875 C 55.59375 -9.226562 52.078125 -5.921875 47.546875 -3.546875 C 43.023438 -1.179688 37.804688 0 31.890625 0 L 9.109375 0 Z M 31.5625 -5.109375 C 36.46875 -5.109375 40.757812 -6.082031 44.4375 -8.03125 C 48.113281 -9.976562 50.960938 -12.671875 52.984375 -16.109375 C 55.015625 -19.546875 56.03125 -23.5 56.03125 -27.96875 C 56.03125 -32.445312 55.015625 -36.40625 52.984375 -39.84375 C 50.960938 -43.28125 48.113281 -45.96875 44.4375 -47.90625 C 40.757812 -49.851562 36.46875 -50.828125 31.5625 -50.828125 L 15.03125 -50.828125 L 15.03125 -5.109375 Z M 31.5625 -5.109375 "/></g></g></g><g fill="#f1f5f9" fill-opacity="1"><g transform="translate(1236.97611, 1020.131817)"><g><path d="M 48.671875 -5.109375 L 48.671875 0 L 9.109375 0 L 9.109375 -55.953125 L 47.46875 -55.953125 L 47.46875 -50.828125 L 15.03125 -50.828125 L 15.03125 -30.9375 L 43.953125 -30.9375 L 43.953125 -25.890625 L 15.03125 -25.890625 L 15.03125 -5.109375 Z M 48.671875 -5.109375 "/></g></g></g><g fill="#f1f5f9" fill-opacity="1"><g transform="translate(94.215287, 842.231461)"><g><path d="M 19.59375 -120.3125 L 68.578125 -120.3125 C 81.296875 -120.3125 92.523438 -117.757812 102.265625 -112.65625 C 112.003906 -107.5625 119.566406 -100.457031 124.953125 -91.34375 C 130.335938 -82.238281 133.03125 -71.84375 133.03125 -60.15625 C 133.03125 -48.46875 130.335938 -38.066406 124.953125 -28.953125 C 119.566406 -19.847656 112.003906 -12.742188 102.265625 -7.640625 C 92.523438 -2.546875 81.296875 0 68.578125 0 L 19.59375 0 Z M 67.890625 -11 C 78.429688 -11 87.65625 -13.085938 95.5625 -17.265625 C 103.46875 -21.453125 109.597656 -27.238281 113.953125 -34.625 C 118.304688 -42.019531 120.484375 -50.53125 120.484375 -60.15625 C 120.484375 -69.78125 118.304688 -78.285156 113.953125 -85.671875 C 109.597656 -93.066406 103.46875 -98.851562 95.5625 -103.03125 C 87.65625 -107.21875 78.429688 -109.3125 67.890625 -109.3125 L 32.3125 -109.3125 L 32.3125 -11 Z M 67.890625 -11 "/></g></g></g><g fill="#f1f5f9" fill-opacity="1"><g transform="translate(250.273629, 842.231461)"><g><path d="M 95.046875 -32.140625 L 28.015625 -32.140625 L 13.578125 0 L 0.34375 0 L 55.34375 -120.3125 L 67.890625 -120.3125 L 122.890625 0 L 109.484375 0 Z M 90.40625 -42.453125 L 61.53125 -107.078125 L 32.65625 -42.453125 Z M 90.40625 -42.453125 "/></g></g></g><g fill="#f1f5f9" fill-opacity="1"><g transform="translate(387.598233, 842.231461)"><g><path d="M 19.59375 -120.3125 L 32.3125 -120.3125 L 32.3125 -11 L 99.6875 -11 L 99.6875 0 L 19.59375 0 Z M 19.59375 -120.3125 "/></g></g></g><g fill="#f1f5f9" fill-opacity="1"><g transform="translate(502.923605, 842.231461)"><g><path d="M 144.546875 -120.3125 L 144.546875 0 L 132.34375 0 L 132.34375 -96.25 L 85.078125 -15.296875 L 79.0625 -15.296875 L 31.796875 -95.734375 L 31.796875 0 L 19.59375 0 L 19.59375 -120.3125 L 30.078125 -120.3125 L 82.328125 -31.109375 L 134.0625 -120.3125 Z M 144.546875 -120.3125 "/></g></g></g><g fill="#f1f5f9" fill-opacity="1"><g transform="translate(681.153044, 842.231461)"><g><path d="M 72.1875 1.03125 C 60.269531 1.03125 49.46875 -1.628906 39.78125 -6.953125 C 30.101562 -12.285156 22.539062 -19.59375 17.09375 -28.875 C 11.65625 -38.15625 8.9375 -48.582031 8.9375 -60.15625 C 8.9375 -71.726562 11.65625 -82.15625 17.09375 -91.4375 C 22.539062 -100.71875 30.101562 -108.019531 39.78125 -113.34375 C 49.46875 -118.675781 60.269531 -121.34375 72.1875 -121.34375 C 84.101562 -121.34375 94.84375 -118.707031 104.40625 -113.4375 C 113.976562 -108.164062 121.515625 -100.859375 127.015625 -91.515625 C 132.515625 -82.179688 135.265625 -71.726562 135.265625 -60.15625 C 135.265625 -48.582031 132.515625 -38.125 127.015625 -28.78125 C 121.515625 -19.445312 113.976562 -12.144531 104.40625 -6.875 C 94.84375 -1.601562 84.101562 1.03125 72.1875 1.03125 Z M 72.1875 -10.3125 C 81.695312 -10.3125 90.289062 -12.457031 97.96875 -16.75 C 105.644531 -21.050781 111.660156 -27.007812 116.015625 -34.625 C 120.367188 -42.25 122.546875 -50.757812 122.546875 -60.15625 C 122.546875 -69.550781 120.367188 -78.054688 116.015625 -85.671875 C 111.660156 -93.296875 105.644531 -99.253906 97.96875 -103.546875 C 90.289062 -107.847656 81.695312 -110 72.1875 -110 C 62.675781 -110 54.050781 -107.847656 46.3125 -103.546875 C 38.582031 -99.253906 32.507812 -93.296875 28.09375 -85.671875 C 23.6875 -78.054688 21.484375 -69.550781 21.484375 -60.15625 C 21.484375 -50.757812 23.6875 -42.25 28.09375 -34.625 C 32.507812 -27.007812 38.582031 -21.050781 46.3125 -16.75 C 54.050781 -12.457031 62.675781 -10.3125 72.1875 -10.3125 Z M 72.1875 -10.3125 "/></g></g></g><g fill="#f1f5f9" fill-opacity="1"><g transform="translate(839.445636, 842.231461)"><g/></g></g><g fill="#f1f5f9" fill-opacity="1"><g transform="translate(898.569812, 842.231461)"><g><path d="M 95.046875 -32.140625 L 28.015625 -32.140625 L 13.578125 0 L 0.34375 0 L 55.34375 -120.3125 L 67.890625 -120.3125 L 122.890625 0 L 109.484375 0 Z M 90.40625 -42.453125 L 61.53125 -107.078125 L 32.65625 -42.453125 Z M 90.40625 -42.453125 "/></g></g></g><g fill="#f1f5f9" fill-opacity="1"><g transform="translate(1035.894449, 842.231461)"><g><path d="M 101.75 0 L 74.25 -38.671875 C 71.15625 -38.328125 67.945312 -38.15625 64.625 -38.15625 L 32.3125 -38.15625 L 32.3125 0 L 19.59375 0 L 19.59375 -120.3125 L 64.625 -120.3125 C 79.976562 -120.3125 92.007812 -116.644531 100.71875 -109.3125 C 109.425781 -101.976562 113.78125 -91.894531 113.78125 -79.0625 C 113.78125 -69.664062 111.398438 -61.726562 106.640625 -55.25 C 101.890625 -48.78125 95.101562 -44.113281 86.28125 -41.25 L 115.671875 0 Z M 64.28125 -48.984375 C 76.195312 -48.984375 85.304688 -51.617188 91.609375 -56.890625 C 97.910156 -62.160156 101.0625 -69.550781 101.0625 -79.0625 C 101.0625 -88.800781 97.910156 -96.273438 91.609375 -101.484375 C 85.304688 -106.703125 76.195312 -109.3125 64.28125 -109.3125 L 32.3125 -109.3125 L 32.3125 -48.984375 Z M 64.28125 -48.984375 "/></g></g></g><g fill="#f1f5f9" fill-opacity="1"><g transform="translate(1174.250284, 842.231461)"><g><path d="M 42.96875 -109.3125 L 0.6875 -109.3125 L 0.6875 -120.3125 L 97.96875 -120.3125 L 97.96875 -109.3125 L 55.6875 -109.3125 L 55.6875 0 L 42.96875 0 Z M 42.96875 -109.3125 "/></g></g></g><g fill="#f1f5f9" fill-opacity="1"><g transform="translate(1286.997639, 842.231461)"><g><path d="M 104.671875 -11 L 104.671875 0 L 19.59375 0 L 19.59375 -120.3125 L 102.09375 -120.3125 L 102.09375 -109.3125 L 32.3125 -109.3125 L 32.3125 -66.515625 L 94.53125 -66.515625 L 94.53125 -55.6875 L 32.3125 -55.6875 L 32.3125 -11 Z M 104.671875 -11 "/></g></g></g><g fill="#f1f5f9" fill-opacity="1"><g transform="translate(1416.072514, 842.231461)"><g><path d="M 120.140625 -120.3125 L 120.140625 0 L 109.65625 0 L 32.3125 -97.625 L 32.3125 0 L 19.59375 0 L 19.59375 -120.3125 L 30.078125 -120.3125 L 107.59375 -22.6875 L 107.59375 -120.3125 Z M 120.140625 -120.3125 "/></g></g></g></svg>